<?xml version="1.0" encoding="utf-8"?>
<!-- Generator: Adobe Illustrator 24.2.1, SVG Export Plug-In . SVG Version: 6.00 Build 0)  -->
<svg version="1.1" id="Layer_1" xmlns="http://www.w3.org/2000/svg" xmlns:xlink="http://www.w3.org/1999/xlink" x="0px" y="0px"
	 viewBox="0 0 1200 320" style="enable-background:new 0 0 1200 320;" xml:space="preserve">
<style type="text/css">
	.st0{fill:#978763;}
	.st1{fill:#CCBD96;}
	.st2{fill:#E5873B;}
	.st3{fill:#BC6535;}
	.st4{fill:#F8E0CD;}
	.st5{fill:#F7E9DB;}
	.st6{fill:#A5976D;}
</style>
<g>
	<path class="st0" d="M1044.7,119.4c0.2,7.1,2.4,14.5,5.5,22c2.1,5,3.8,10.5,3.6,16.4c-0.3,6.3-1.2,12.3-2.3,18.5
		c-0.8,5,2,9.7,2.6,14.6c1.4,11.4-0.3,21.8-5.8,32c-5.9,11.2-15.5,16.8-27,20c-5.4,1.5-11.2,2.4-15.8,5.5
		c-6.8,4.4-9.4,11.3-10.3,19.3c-0.8,7-3.1,13.9-5.5,20.7c-2.2,6.4-4,12.9-6.1,19.3c-0.7,2-1,4.5-3.5,5.5c-0.8,0.3-1.6,0.3-2.3-0.5
		s-0.3-1.4,0-2.1c6.3-14.2,11.4-28.7,14.7-43.8c0.5-2.2,0.5-4.6,1.1-6.9c1.9-7.8-4.2-10.6-8.8-14.2c-4.7-3.8-11.1-4.1-16-7.3
		c-8.8-5.8-15-13.2-16.5-24.7c-1.3-9.3-0.3-18.4-0.2-27.6c0-7-0.8-14.1-0.5-21c0.3-8.2,2.3-16.2,4.8-24.1c2.8-8.7,5.6-17.5,8.6-26
		c5.6-15.4,13.2-29.8,22-43.7c5-8,9.8-16.2,14.7-24.2c1.4-2.4,7.1-1.6,10.1,1.4c6.3,6.2,11.4,13.4,16.4,20.6c1.6,2.4,4,4.2,6.1,6.3
		c5.1,5,7.7,11,8.3,18.1C1043.6,101.6,1045.5,109.9,1044.7,119.4z"/>
	<path class="st1" d="M1044.7,119.4c0.2,7.1,2.4,14.5,5.5,22c2.1,5,3.8,10.5,3.6,16.4c-0.3,6.3-1.2,12.3-2.3,18.5
		c-0.8,5,2,9.7,2.6,14.6c1.4,11.4-0.3,21.8-5.8,32c-5.9,11.2-15.5,16.8-27,20c-5.4,1.5-11.2,2.4-15.8,5.5
		c-6.8,4.4-9.4,11.3-10.3,19.3c-0.8,7-3.1,13.9-5.5,20.7c-2.2,6.4-4,12.9-6.1,19.3c-0.7,2-1,4.5-3.5,5.5c-0.8,0.3-1.6,0.3-2.3-0.5
		s-0.3-1.4,0-2.1c6.3-14.2,11.4-28.7,14.7-43.8c0.5-2.2,0.5-4.6,1.1-6.9c1.9-7.8-4.2-10.6-8.8-14.2c-4.7-3.8-11.1-4.1-16-7.3
		c-8.8-5.8-15-13.2-16.5-24.7c-1.3-9.3-0.3-18.4-0.2-27.6c0-7-0.8-14.1-0.5-21c0.3-8.2,2.3-16.2,4.8-24.1c2.8-8.7,5.6-17.5,8.6-26
		c5.6-15.4,13.2-29.8,22-43.7c5-8,9.8-16.2,14.7-24.2c1.4-2.4,7.1-1.6,10.1,1.4c6.3,6.2,11.4,13.4,16.4,20.6c1.6,2.4,4,4.2,6.1,6.3
		c5.1,5,7.7,11,8.3,18.1C1043.6,101.6,1045.5,109.9,1044.7,119.4z M999,211.5c-0.7-5.6,4.5-12.4-3.6-16.4c-0.8-0.4-1.4-1.4-2.2-2.1
		c-7.6-7.9-15.3-15.8-23.1-23.6c-4.2-4.3-10-7-13.7-11.9c-0.7-0.8-0.9-1.7-0.1-2.4c0.7-0.7,1.4,0,1.5,0.6c0.8,2.8,3.2,4.6,5.3,6.1
		c10.8,7.6,18.6,18.2,28.1,27.3c2.8,2.7,5.7,5.2,9.2,7.7c0.2-3.4,0.9-6.4,0.3-8.9c-1.9-7.8-5.4-15-10.8-21.2
		c-5.6-6.4-10.9-13.1-16.9-19.1c-3.9-4-6.7-9.1-11.3-12.7c-3.9,8-5.9,16.3-7.1,24.8c-0.2,1,0.7,2.4,1.5,3.2
		c4.4,4.3,8.9,8.4,13.3,12.7c6.1,5.9,12.7,11.4,18.1,17.9C992.3,198.6,995.9,204.8,999,211.5z M954.6,162.8
		c-0.1,5.8,1.1,11,1.2,16.3c0.1,4.2,1.3,7.3,4.7,9.7c2,1.4,4.2,2.7,6.1,4.3c9,7.5,18.1,14.8,26.4,23.2c1.9,1.9,3.6,4,5.8,6.3
		c0.5-4-0.4-7.1-1.8-10.4c-4.7-11.4-12.2-20.8-20.9-29.2C969.1,176.3,961.5,170.3,954.6,162.8z M1006.1,187.3
		c4.4-2.2,8.8-4.1,13-6.4c9.7-5.6,18.7-12.1,26.3-20.4c1.5-1.7,4-2.9,4.3-5.3c0.5-3.7-0.9-7.1-2.7-10.7c-4.3,3.2-8.3,6.9-13,9.5
		c-9.5,5.2-18.1,11.5-26.3,18.4c-1.1,0.9-1.8,2-1.7,3.4C1006,179.5,1006.1,183.3,1006.1,187.3z M1002.8,219.1
		c14.8-12,32.4-20.5,47.4-33.1c-4.3-5.8-2.5-12.2-1.9-19.1c-2.9,3.1-5.2,6-8,8.6c-9.9,9-20,17.7-29.8,26.7
		C1005.6,206.7,1001.6,211.8,1002.8,219.1z M970.4,112.8c-1.1,2.1-2.2,3.5-2.6,5.1c-0.8,2.5-2.3,4.7-2,7.5c0.4,5,4.7,6.9,7.7,9.6
		c5.9,5.4,11.4,11.4,16.6,17.5c3.8,4.6,8.3,8.6,12.6,13.1c0.4-4.3,0.8-8.2,1.2-12.2c0-0.2-0.3-0.5-0.4-0.7
		c-3.5-3.4-6.4-7.2-9.2-11.3C987.4,131.3,978.6,122.4,970.4,112.8z M1008.2,142.9c0.4,0.1,0.8,0.2,1.2,0.3c0.5-0.4,1-0.9,1.5-1.4
		c7.5-6.9,17-11.2,23.7-19.1c1.9-2.4,5.2-4.2,5.4-7.2c0.5-5.6-0.1-11.2-0.3-17.2c-1.7,1.8-3.1,3.4-4.5,4.9
		c-5.8,5.7-12.9,9.7-19.7,14.2c-2,1.4-4.9,2.5-5.3,4.8C1009.3,129,1008.9,135.9,1008.2,142.9z M983.4,84.7c-1.8,3.1-3.1,5.8-4.7,8.4
		c-2.3,3.6-3,6.8-0.3,10.6c5.4,7.6,10.6,15.4,15.8,23.1c3.1,4.5,6.6,8.5,10.9,11.7c1.4-5.1,0.8-10.3,1.4-15.5
		C995.8,112.4,989.8,98.6,983.4,84.7z M996.2,244.5c0-1.7,0.2-2.9,0-4.1c-1-6.8-5.5-11.8-9.9-16.4c-10.1-10.6-20.7-20.7-31.2-31
		c0,3-0.3,6.1,0,9.2c0.4,3.9,2.4,6.9,5,10.1c4,4.9,8.6,8.6,13.6,12.5C981.4,230.9,991.9,233.9,996.2,244.5z M1002.1,231
		c5-4.6,10.3-8.3,15.8-11.8c9.2-5.9,19.7-9.8,28-17.3c6.1-5.5,6.1-4.2,4.3-13.1c-2.5,1.9-4.7,3.7-7.1,5.3
		c-11.2,7.5-22.5,14.8-33.7,22.2C1003.3,220.2,1000.8,224.8,1002.1,231z M1040.5,121.4c-1.6,3.1-3.4,5.1-4.9,7.2
		c-4.5,6.4-11.4,10.3-16.4,16.1c-3.6,4.1-8.3,7.1-11.2,11.8c-0.8,1.4-0.7,3.2-0.1,4.7c0.3,0.7,1,0.2,1.5-0.2
		c10.8-8.1,22.2-15.1,33.7-22.1c0.8-0.5,2.2-1,1.7-2.5C1043,131.7,1040.6,127.2,1040.5,121.4z M1050.9,200.7c0,0-0.2,0-0.3,0
		c-4.6,3.2-8.6,7.1-13.6,9.9c-11.7,6.5-23.8,12.5-33.8,21.7c-2.2,2-2.5,4.5-2.2,7c4-2.6,7.7-5.6,11.8-7.7c10-5.2,20.8-8.8,29.3-16.5
		C1046.5,211.3,1052.1,208,1050.9,200.7z M1000.4,248.6c1.1-1,2-2.2,3.2-2.9c4-2.2,8.6-2.5,12.6-4.2c8.6-3.7,17.5-6.8,24-14.7
		c3.6-4.3,5.2-9.1,7.5-13.7c-5.3,6.2-12.5,9.7-19.3,13.6c-6,3.6-13.3,4.9-18.8,9.4C1005.7,239.4,999,240.9,1000.4,248.6z M963,131.1
		c10.8,18.7,30.4,30.8,38.6,52.1c0.4-2.4,0.9-4.2,1-6c0.2-3.4,1.5-7.3-0.7-10.1c-5-6.4-11.4-11.6-16.4-18.1
		c-6-7.7-13.9-14.2-21.5-20.4C963.6,129.5,963.2,130.4,963,131.1z M1049.8,158.6c-3.6,3.6-6.9,6.9-10.3,9.9
		c-9,7.8-19.5,13.1-29.8,18.6c-1.4,0.7-3.7,0.8-3.7,2.6c0,5.5-0.8,11-1.9,17.1c4.3-5.8,9.5-9.7,14.3-14c8.3-7.3,16.6-14.5,24.2-22.5
		C1045.6,167.1,1049.7,164.5,1049.8,158.6z M955.8,187.4c-1.2,1.9,0.6,3.7,1.4,5c2,3.1,4.8,5.6,7.5,8.1c8.9,8.6,18.1,16.9,26.3,26.4
		c2.6,3.1,5,6.3,6.9,11.4c0-5.5,1.4-10.3-0.3-13.5c-4.4-8.2-11.9-14.1-19-19.9C971.3,198.7,964.5,191.9,955.8,187.4z M974.3,101
		c0.8,4.2-4.3,6.2-1.2,10.9c2.2,3.4,4.7,6.8,7.1,9.9c5,6.5,11.2,12.1,15.6,19.2c2.2,3.6,4.7,7,8.7,10c-0.4-5.3,2.8-10.9-4-14
		c-1-0.4-1.9-1.6-2.5-2.6C990.3,123.6,982.6,112.6,974.3,101z M993.7,65.4c-1,1.9-1.8,3.7-3.1,5.3c-2.6,3.4-1.4,6.2,0.2,9.6
		c3.1,6.5,8.4,11.4,11.8,17.6c1.4,2.5,2.9,4.8,5,8.2c0-4.2-0.3-7.1,0.1-10c0.8-5.5-0.6-9.8-4.5-14.3
		C999.3,77.3,996.9,71.1,993.7,65.4z M1006.7,120.9c0.1-1.2,0.3-1.9,0.3-2.7c-0.6-3.5,1.4-6.9-0.3-10.4c-5.3-10.8-13.8-19.7-19.3-30
		c-3.1,3.1-2.5,6.5-0.8,10.2c1.5,3.2,3.6,6.4,4.7,9.7C994.3,106.8,1000.9,113.3,1006.7,120.9z M1038.4,88.5c-0.6,0.3-1.3,0.6-1.7,1
		c-8.1,6.4-16.6,11.9-25.8,16.6c-0.8,0.4-0.2,0.6-0.2,0.9c-0.3,3.9,0.8,7.9-0.9,11.9c0.4-0.3,0.7-0.4,0.9-0.6
		c6.5-5.2,13.9-9,20.3-14.3C1038.1,98.4,1039.8,96.3,1038.4,88.5z M957.1,212.2c0.2,0.8,0.3,1.4,0.4,2.1c0.2,0.7,0.3,1.4,0.4,2.1
		c1.2,10.8,9.1,16.5,17.3,21.5c2.9,1.7,6.8,1.5,10.1,2.6c3.7,1.2,6.8,3.6,9.7,6.3c-1.9-3.2-2.7-6.9-5.8-9.3
		C978.4,229.3,966,223.1,957.1,212.2z M1031.9,76.9c-3.6-3.7-7.2-7.5-10.3-10.8c-9.6,4.5-10,13.1-9.8,21.6
		C1018.3,84.1,1026.1,82.2,1031.9,76.9z M1007.7,170.2c11.7-10.8,26.4-17.7,39-28c-0.3-0.7-0.5-1.5-0.9-2.9
		c-0.6,2.2-2.3,1.4-3.4,1.9c-9.2,4.8-17.8,10.5-26.2,16.5C1011.9,160.9,1005.7,163,1007.7,170.2z M1010.8,104.1
		c0.1,0,0.5-0.1,0.8-0.3c6.4-4,13.1-7.8,19.3-12c3.6-2.5,8.4-5,4.2-10.8c-0.2-0.2,0-0.6,0-0.8c-1.2,0-1.9,0.5-2.5,1.3
		c-3.2,4.3-7.9,6.9-11.8,10.5C1017.1,95.5,1009.7,96.3,1010.8,104.1z M1008.3,85c1.6-10.9-8-16.9-10.3-26.4c-2.6,2.8-3,4.9-1.4,8
		C999.8,73,1002.4,80.1,1008.3,85z M1008.8,152.4c8.6-9.7,19.4-16.9,26.9-27.5c-5.6,5.9-13,9.8-19.2,14.9
		C1012.7,142.9,1007.1,145,1008.8,152.4z M1008.3,75.5c1.9-9.1-2.7-15.5-7.5-22.2c-0.1,1.7-2.6,1.9-1.7,4.3
		C1001.5,64,1005.1,69.5,1008.3,75.5z M1011.7,95.8c8.6-4.7,19.2-13.3,20.4-16.7c-4.8,3.9-10.5,6.1-16.1,8.5
		C1012.5,89.1,1009.3,91,1011.7,95.8z M1011,65.1c2.6-2.1,3.1-5.7,6-7.1c-2.7-3.3-5.1-6.9-9.2-9C1010.1,54.1,1010.8,59.5,1011,65.1z
		 M1012,72.3c5.8-4.2,8.1-8.6,6-11.4C1015.1,64.1,1009.4,65.9,1012,72.3z M1007.8,61.5c-0.2-4.8-1.8-8.6-3-12.7
		c-1.1,1.1-2,2-2.7,2.8C1003.9,54.6,1005.7,57.8,1007.8,61.5z"/>
</g>
<g>
	<path class="st2" d="M889.7,282c-6.9-0.4-14.1-1.1-19.9-5.4c-7-5.2-12.1-11.9-15.2-20.5c-4.9-13.5-5.3-27.2-3.7-40.9
		c0.9-7.4,2.5-14.9,5.4-22c2.6-6.4,4.6-13.2,10.3-18c11.1-9.3,22.8-17.7,36-23.8c3.8-1.7,6.5-4.5,7.4-8.7c0.4-2.2,1.6-2.4,3.3-1.8
		c0.5,4.4,2.1,8.2,4.7,11.6c6.1,8.1,13.6,15.1,22,20.4c15,9.5,19.5,24.1,22,40c2,12.5,0.2,24.9-3.1,37.1
		c-4,14.7-12.5,24.9-28.3,27.8c-5.6,1-11.3,1.2-17.4,0.8c2.4,5.2,4.2,10.1,6.8,14.5c4.6,7.8,8.2,16.4,16.1,21.8
		c1.2,0.8,2.4,2.8,0.9,4.1c-1.3,1.2-2.9,0.2-4.1-1.1c-3.9-4.5-7.8-9-11.2-14c-4.8-7.2-8.4-14.9-11.6-23.3
		C903.1,283.2,896.4,282.4,889.7,282z"/>
	<path class="st3" d="M889.7,282c-6.9-0.4-14.1-1.1-19.9-5.4c-7-5.2-12.1-11.9-15.2-20.5c-4.9-13.5-5.3-27.2-3.7-40.9
		c0.9-7.4,2.5-14.9,5.4-22c2.6-6.4,4.6-13.2,10.3-18c11.1-9.3,22.8-17.7,36-23.8c3.8-1.7,6.5-4.5,7.4-8.7c0.4-2.2,1.6-2.4,3.3-1.8
		c0.5,4.4,2.1,8.2,4.7,11.6c6.1,8.1,13.6,15.1,22,20.4c15,9.5,19.5,24.1,22,40c2,12.5,0.2,24.9-3.1,37.1
		c-4,14.7-12.5,24.9-28.3,27.8c-5.6,1-11.3,1.2-17.4,0.8c2.4,5.2,4.2,10.1,6.8,14.5c4.6,7.8,8.2,16.4,16.1,21.8
		c1.2,0.8,2.4,2.8,0.9,4.1c-1.3,1.2-2.9,0.2-4.1-1.1c-3.9-4.5-7.8-9-11.2-14c-4.8-7.2-8.4-14.9-11.6-23.3
		C903.1,283.2,896.4,282.4,889.7,282z M890.6,252.8c1.5,1.2,3,2.4,4.5,3.7c2.6-0.8,3.4,1.6,4.9,2.7c1.1,0.8,2,1.8,3.3,3
		c0.3-2.3-0.2-3.9-1.6-5.1c-13.6-12.6-24.5-27.3-33.5-43.5c-2.9-5.2-6.5-10-8.7-15.7c-4.3,6.5-4.1,13,0.5,19.3
		c6.3,8.8,12,18,20.5,25c0.2,0.2,0.1,0.8,0.1,1.2c0.3,0.3,0.6,0.7,0.9,1C884.1,247.9,887.5,250.2,890.6,252.8z M907.4,187.8
		c-6.6,4.8-5.6,11.8-6.5,18.4c8.4-10.4,16.3-21.2,21.9-33.4c2.3-0.2,1.8-2.5,2.7-3.7c-1,1.2-2.4,2-2.7,3.8
		C917,177.1,913.2,183.5,907.4,187.8z M937.8,227.1c-9.3,8.7-19.8,15.9-30.5,22.8c-1,0.6-2.8,1-2.1,2.6c0.7,1.5,2.4,1,3.6,0.5
		c8-3.1,15.7-6.4,22.6-11.9c6.6-5.3,14-9.8,20.1-15.9c2-2,3.9-4,5.8-6.1c1.9-2.1,1.1-4.7,0.7-7c-0.3-2.2-1.2-4.3-1.9-6.9
		C950.8,213.5,944.7,220.7,937.8,227.1z M899.3,223.1c0.6,0.5,1.3,0.9,1.9,1.4c14.1-14.2,29-27.6,39.8-44.7
		c-2.1-2.9-4.5-4.7-7.3-6.6C922.3,190.1,911.8,207.3,899.3,223.1z M924.8,218c-6.3,5.9-13,11.5-19.7,17c-2.9,2.3-3.1,4.5-1.6,8
		c5-4.2,10-8.2,14.8-12.5c11-9.8,22.3-19.2,32.8-29.6c3.4-3.4,2.5-5.6,0.4-9.1C942.9,201.1,933.8,209.6,924.8,218z M906,243.2
		c-2.2,1.8-2.2,1.9-1.4,5.2c1.8,0.1,2.9-1.1,4.2-2c11-7.4,22.4-14.5,31.6-24.3c5.3-5.6,10.5-11.2,13.9-18.2c0.7-1.3,1.4-2.7-0.1-4.1
		C939.6,216,922.7,229.5,906,243.2z M933.6,200.8c3.4-5.2,7-10.2,9.9-15.7c0.9-1.7,1.1-2.8-0.8-3.6c-11.5,15.9-25.2,29.7-39.3,43.2
		c-2.7,2.6-3,5-2,8.4C915.3,225.2,925.1,213.6,933.6,200.8z M894.4,224.4c-10-12.9-21.3-24.8-28.3-40.1c-2.1,2.2-2.6,4.1-1.5,6.7
		c5.4,12.7,13.8,23.5,22.3,34.1c4.3,5.4,8.8,10.7,13.9,17C899.6,235,898.3,229.4,894.4,224.4z M913.4,266.6
		c9.4-3.5,17.8-8.7,26-14.2c6.3-4.2,12.1-9,17-14.8c3.1-3.6,3.7-5.6,2.3-11c-14.2,15.9-31.5,27.6-49.8,38.4
		C909.6,267.8,911.5,267.3,913.4,266.6z M863.7,202.2c9.9,18.5,22.1,35.6,36.7,50.7c0.4,0.4,0.9,0.6,1.5,1.1
		c0.8-7.1-3.3-11.8-7.2-16.4c-11.7-13.7-23.2-27.5-30.9-44c-0.3-0.7-0.9-1.3-1.5-2.1C858.5,195.9,862.1,199.2,863.7,202.2z
		 M858.1,240.4c12.6,12.3,25.4,24,41.8,31c1.3,0.5,2.5,1.5,4.5,1.1c-18.9-13.7-36.2-28.5-50.3-48.1
		C854.1,230.8,853.3,235.7,858.1,240.4z M915.1,271.5c9.9-0.9,18.2-5.8,26.1-11.2c3.6-2.4,7.7-4.2,11-7.2c3.9-3.5,5.7-7.7,5.8-13.7
		c-14.3,13.4-29.9,23.6-47.7,30.8C911.6,272.2,913.4,271.7,915.1,271.5z M856.5,223.8c12.8,17.6,28.4,32.3,46.3,44.6
		c0.6,0.4,1.4,0.7,2.2,1.2c0.3-2.6-0.8-4.1-2.7-5.4c-17.5-11.2-30.7-26.8-42.5-43.5c-1.6-2.3-2.7-4.8-4.4-7.9
		C854.1,217.2,854.2,220.6,856.5,223.8z M903.2,206.2c-3.2,3.8-3.3,7.5-2.8,12.2c12.3-14.6,21-31.1,31.7-46.2
		c-2.1-2.4-2.1-2.4-4.1-3.1C920.9,182.3,912.8,194.7,903.2,206.2z M906.3,256c0.2,2.3,1.1,4,2.1,5.5c19.8-9.6,37.3-22,50.5-39.9
		C943.2,236,926.8,249.2,906.3,256z M855.3,240.5c0.6,5.4,1.1,11.5,4.7,15.1c4.2,4.2,10,7.1,15.6,9.6c6.8,2.9,13.7,5.7,21.1,7.1
		C881.2,264.1,866.5,254.6,855.3,240.5z M954.3,253.9c-12.4,10.7-25.7,17.8-41,20.7C930.3,277.9,948.9,272.1,954.3,253.9z
		 M879.1,168.5c-5,2.7-5.3,3.7-3.4,8.5c5,11.8,14.4,20.5,21.9,30.6C893.7,193.4,883.4,182.4,879.1,168.5z M862.7,260.2
		c6,12.3,16.3,21.1,38.5,16.3C887.3,274.1,874.6,268.9,862.7,260.2z M894.4,207.1c-9-9.5-16-20.3-22-31.8c-2.9,2-3.1,2.3-1.3,5
		c7.1,10.7,14.3,21.3,21.5,31.9c1.5,2.2,3,4.5,4.7,7.2C898.4,214.4,897.6,210.5,894.4,207.1z M867.6,183.8c3.7,6.3,7,12.8,11.8,18.5
		c5.9,7,11.2,14.4,16.8,21.6c0.5,0.6,1,1.1,1.9,1.4c-8.7-15.7-19.9-29.8-29.3-45.3C866.9,181.2,866.9,182.6,867.6,183.8z
		 M895.9,190.2c-4.5-7.9-8.4-16.1-11.3-24.9c-3.4,0.5-4.4,1.8-3.1,5c4.2,9.9,9.9,18.9,14.9,28.3c0.5,1,1.1,2,1.7,3.2
		C900.1,197.1,897.9,193.7,895.9,190.2z M902.1,189.4c3.1-0.9,4.1-2.7,5.5-4.1c5.1-5.2,10.4-10.2,15-15.9c2.3-2.9,2.5-5.4-1.2-7.3
		C914.7,170.5,907.4,178.7,902.1,189.4z M902.1,173.4c-2.4-5.1-3.6-10.6-4.9-16.4c-1.8,0.9-3.8,0.9-3.5,3.7
		c0.8,8.8,4.3,16.8,7.1,25.1C901.6,181.7,904.3,178.1,902.1,173.4z M891.9,160.3c-5.6,1.7-6.3,2.5-4.6,7.2
		c3.1,8.5,6.8,16.8,12.3,24.2C897.6,181.2,891.9,171.5,891.9,160.3z M948.6,191.6c2.4-3.2-1-4.4-2.3-7c-6.4,9.9-12.5,19.5-19.2,28.8
		C934.3,206.2,942.5,199.9,948.6,191.6z M917.5,163.9c1.2-1.7,3.6-4-0.3-6.3c-3.6,6.8-11.2,11.3-11.4,21.1
		C910.1,173.2,914,168.7,917.5,163.9z M899.5,155.9c0.3,5.8,2.3,11.2,4.4,17.5C906.4,164.8,904.1,156.3,899.5,155.9z M906.8,154.5
		c-0.4-0.9-0.8-1.9-2.2-1.4c-1.2,0.5-1.4,1.3-0.9,2.4c0.7,1.9,1.2,3.9,2.9,5.6C907.7,158.8,907.8,156.7,906.8,154.5z M910.1,164.4
		c2.4-3.2,4.8-5.9,5.3-9.7C913.1,157.5,909.4,159.5,910.1,164.4z M913.2,151.2c-1.3,0.6-0.9,1.6-0.9,3.2
		C913.6,153.2,914.2,152.4,913.2,151.2z M908.5,152.4c0.2-0.7,0.3-1.3,0.6-2.4C907.5,150.9,907.1,151.5,908.5,152.4z"/>
</g>
<g>
	<path class="st4" d="M1098.7,50.1c0.4-1.3,1.8-2,2.3-3.2c0.2-0.5,0.5-0.5,0.8-0.1c0.7,1.1,0.9,2.3,1.3,3.5c1.1,3.2,3.6,5.4,5.8,7.8
		c0.6,0.6,1.5,0.3,2.1,1.1c1.2,1.7,2.6,3.1,3.3,5.2c0.8,2.3,2.3,4.3,3.7,6.4c1.6,2.4,2.7,5,2.7,8.1c0,3.2-0.9,6.2-2.2,9
		c-1,2.1-2.8,3.3-4.3,5c-1.2,1.4-2.7,2.5-3.9,3.9c-1.6,1.9-3.5,3.6-4.5,6.1c-0.8,1.9-2.4,3.5-3.5,5.2c-2.2,3.3-5.2,5.8-8.6,7.8
		c-0.6,0.3-1.5,0.8-1.9,0c-0.3-0.7,0.1-1.6,1.1-1.9c0.4-0.1,0.8,0,1.1-0.2c2.1-1.3,4.2-2.6,5.8-4.4c2-2.3,4.3-4.3,5-7.5
		c0.3-1.3-0.1-2.3-0.6-3.4c-0.6-1.4-1.1-2.8-2.2-3.8c-0.9-0.8-2.1-1.4-2.7-2.4c-1.3-2.2-3-4.1-4-6.6c-1.8-4.4-1.5-8.7-0.1-13.1
		c0.6-1.8,1.8-3.4,2.2-5.2c0.7-3.1,0.3-6.3,0.1-9.4c-0.1-1.8-0.5-3.6,0.2-5.4c0.3-0.7,0.7-1.4,0.5-2.3
		C1098.5,50.2,1098.7,50.2,1098.7,50.1z"/>
</g>
<g>
	<path class="st5" d="M268.5,35.9c-0.7,1.1-1.5,2.2-1.9,3.5c-0.7,2-0.5,4.1-0.7,6.1c-0.6,5.5-3.8,9.9-6.6,14.4
		c-1.2,1.9-3.1,3.2-4.8,4.7c-0.6,0.5-1.1,1.2-1.9,1.3c-2,0.2-3.9,0.5-5.8-0.3c-1.9-0.8-3.8-1.5-5.8-2.2c-1.8-0.6-3.6-1-5.5-0.9
		c-1.2,0.1-2.3,0.4-3,1.5c-1.5,2.4-2.8,4.8-3.9,7.4c-0.7,1.6-1.3,3.2-1.9,4.9c-0.2,0.4-0.4,0.7-0.9,0.6c-0.4-0.1-0.3-0.5-0.2-0.8
		c0.1-0.7,0.2-1.4,0.5-2c1.7-3.4,3.3-6.9,5.4-10.2c0.1-0.2,0.2-0.4,0.2-0.6c0-1.7,0.6-3.2,0.9-4.8c0.9-4.6,3-8.5,6.1-12
		c0.6-0.7,1.2-1.4,2-2c1.8-1.4,3.6-2.7,5.6-3.9c2.1-1.3,4.2-2.6,6.5-3.6c1.1-0.5,2.2-0.9,3.6-0.7c3,0.4,6.1,0.7,9.1-0.1
		c1.2-0.3,2.2-1,3.3-1.7C269,35.2,268.7,35.6,268.5,35.9z"/>
</g>
<g>
	<path class="st6" d="M188.3,55.8c-0.1,3.9,2.6,6.4,4.2,8.9c4.6,6.7,4.7,14.4,5.7,21.7c1.8,13,3.2,26.2,8.7,38.2
		c3.2,7.1,9.6,12.6,13.5,19.4c9.6,16.5,14.5,34,11,53.4c-1.9,10.7-7,20.1-10.3,30.2c-1.5,4.5-5.9,8.1-8.8,12.2
		c-3.7,5.2-4.4,11.4-5.6,17.5c-0.9,4.8-1.7,9.4,0.6,14.2c5.8,12.1,17,18.4,27.2,25.9c8.3,6.2,18.1,9.3,27.6,12.9
		c1.4,0.5,3.1-0.3,4.7-0.2c4.1,0.4,6.7,3.5,6,6.8c-0.8,3.7-5.2,2.5-7.7,1.7c-15.6-5.1-29.9-12.3-41.8-24c-6.3-6.2-14.3-11-19.1-18
		c-6.3-9.3-15.6-14.2-23.7-20.6c-6-4.7-13.1-7.8-19.1-12.4c-7.3-5.5-16-8.9-21.8-16.6c-8-10.5-14.1-21.6-17-34.8
		c-2.9-12.5-0.6-24,3.8-35.3c3.8-9.6,8.2-19,9.5-29.3c1.1-8.8,5.6-16.1,8.9-23.9c1.5-3.4,5.6-3.1,7.5-6.2
		c6.9-11.7,15.1-22.8,16.8-36.7c0.6-5.2,0.1-10.4,2.1-15.4c0.8-1.9,2-2.4,3.4-0.5c3.3,4.5,9.3,6,12.2,11
		C186.9,55.9,187.9,55.7,188.3,55.8z"/>
	<path class="st1" d="M188.3,55.8c-0.1,3.9,2.6,6.4,4.2,8.9c4.6,6.7,4.7,14.4,5.7,21.7c1.8,13,3.2,26.2,8.7,38.2
		c3.2,7.1,9.6,12.6,13.5,19.4c9.6,16.5,14.5,34,11,53.4c-1.9,10.7-7,20.1-10.3,30.2c-1.5,4.5-5.9,8.1-8.8,12.2
		c-3.7,5.2-4.4,11.4-5.6,17.5c-0.9,4.8-1.7,9.4,0.6,14.2c5.8,12.1,17,18.4,27.2,25.9c8.3,6.2,18.1,9.3,27.6,12.9
		c1.4,0.5,3.1-0.3,4.7-0.2c4.1,0.4,6.7,3.5,6,6.8c-0.8,3.7-5.2,2.5-7.7,1.7c-15.6-5.1-29.9-12.3-41.8-24c-6.3-6.2-14.3-11-19.1-18
		c-6.3-9.3-15.6-14.2-23.7-20.6c-6-4.7-13.1-7.8-19.1-12.4c-7.3-5.5-16-8.9-21.8-16.6c-8-10.5-14.1-21.6-17-34.8
		c-2.9-12.5-0.6-24,3.8-35.3c3.8-9.6,8.2-19,9.5-29.3c1.1-8.8,5.6-16.1,8.9-23.9c1.5-3.4,5.6-3.1,7.5-6.2
		c6.9-11.7,15.1-22.8,16.8-36.7c0.6-5.2,0.1-10.4,2.1-15.4c0.8-1.9,2-2.4,3.4-0.5c3.3,4.5,9.3,6,12.2,11
		C186.9,55.9,187.9,55.7,188.3,55.8z M219.6,150.9c0,6.9-2.2,13.3-4.6,19.8c-4,11.3-12,20.6-15.4,32.4c-5.1,17.5-6.7,35.1-5.5,53
		c0.1,1.7,4,7.6,5.6,8.2c-2.9-13,1.4-24.9,5.6-36.4c5.9-15.5,13.6-30.3,17.9-46.4C226.1,170.8,228.2,160.1,219.6,150.9z M183.4,239
		c1.1-11.7,5.6-22.1,11-32.2c3.4-6.4,5.7-13.6,9.8-19.7c6.1-9.1,10.9-18.7,12.8-29.5c1.7-9.4-0.5-15.6-5.2-19.3
		c-1.7,8.9-4.2,17.6-8.3,25.9c-7.4,15.3-16.9,29.5-21.9,45.9C178.7,219.9,175.4,229.6,183.4,239z M202,119.2
		c-1.2,2.8-2.1,4.6-2.9,6.5c-7,15.6-18.4,28.3-28.7,41.7c-4,5.2-7,11.3-7.8,17.5c-0.7,5.2,2.2,10.9,3.8,17.2
		c10.5-26.5,32.3-45.6,39.9-73C204.5,126.9,203.3,123.6,202,119.2z M176.1,223.9c2.3-13.5,7.1-26.2,13.3-38.2
		c7.4-13.9,15.7-27.3,19.1-43c0.7-3.3,1.7-7-0.4-11c-4.7,7.9-6.7,16.5-12.1,23.7c-8,10.8-14.5,22.6-22.1,33.8
		C166.9,199.7,167.4,215.4,176.1,223.9z M162.1,179.7c1.8-6.4,4.5-11.5,8.2-16c8.7-10.7,17.7-21.1,23.9-33.5
		c3.1-6.3,8.3-12,4.6-20.4c-2-4.6-1.4-10.3-1.9-15.6c-0.9,8.2-4.8,15.5-8.9,22.1c-6.4,10.6-13.8,20.4-19.4,31.6
		C163.5,157.8,160.9,167.8,162.1,179.7z M130.5,154.2c-1.5,3.9-2.9,6.8-3.9,10c-2.2,7.7-2.8,14.8,3.3,21.8
		c9.8,11.3,21.9,19.4,33.8,28c1.3,0.9,2.4,2.3,3.8,3c1.3,0.7,1.8,2.7,3.8,2.4c-3.9-8.9-8.7-16.9-15.8-23.6c-4-3.7-7.3-8.3-10.6-12.6
		C138.3,174.7,133.4,165.3,130.5,154.2z M163.3,153c3.9-7.1,7.3-14.2,11.3-20.9c6.5-10.7,15.1-20.3,18.1-32.9
		c1.7-7.2,4.6-15.3,1.3-19.8c-4.4,10.1-10.2,19.3-16.2,28.4c-3.3,5-7.9,9.6-9.7,15C164.9,132.5,164.3,142.8,163.3,153z M189.2,256.4
		c-1.6-2.9-2.9-5.5-4.1-8.1c-3.2-6.5-8.9-10.9-13.9-15.7c-5.8-5.7-13.5-9-20.2-13.8c-7.4-5.3-14.2-11.4-21.8-17.6
		c1.1,2.3,2.3,3.9,2.7,5.5c2.9,12.6,13.4,18.6,22.4,25.8c4.8,3.9,10.7,6.3,15.8,9.8C176.5,246.6,182.7,251.5,189.2,256.4z
		 M228.1,166.7c-0.9,5.1-1.3,9.3-2.4,13.3c-2.7,9.9-5.6,19.8-9.9,29.2c-5.5,12-10.7,24-13.4,37c-0.9,4.1-1.6,18.7,1.1,22.4
		c-3.1-10.8-0.5-19.4,4.1-27.1c8.3-13.8,16.1-27.7,20-43.5C230,187.9,229.6,177.8,228.1,166.7z M134.2,144.2
		c-6.9,16.8,15,43.4,29.5,57.6C160.9,179.7,146.3,162.6,134.2,144.2z M180.6,239c-2.9-5.9-4.2-11-7.5-14.4
		c-5.1-5.2-11.4-9.1-17.2-13.6c-6.8-5.2-14.3-9.8-20.2-16.1c-3.5-3.8-6.8-7.6-11-12.4c1.9,7.2,2.3,13.5,7.5,18.6
		C146.5,215,165.4,223.3,180.6,239z M159.1,180.3c4.1-20.7-7.5-35.1-19.7-48.5c-5.2,6.8-3,13.5,1.2,19.5
		C147.4,160.7,155.1,169.6,159.1,180.3z M147.4,106c-1.5,2.4-2.8,4.5-4,6.6c-3.8,6.4-4.5,15.4-1.7,18.5c6.8,7.5,12.8,15.6,17.6,25.8
		C158.1,138.8,150.9,123.1,147.4,106z M161,152.3c2.9-19.6,0.2-38.8-3.5-58.4c-2.9,2.9-3.2,7.3-6.7,9.2c-1.4,0.7-1.4,1.2-1.2,2.6
		c0.8,5.6,2.8,10.9,4.1,16.3C156.2,132,160.7,141.7,161,152.3z M191.1,68c-4.7,8.7-9.1,17.1-15.5,24.3c-6.4,7.3-5.4,16.4-7.9,25.9
		c1.4-1.4,1.8-1.7,2.1-2.2c5.6-8.8,11.4-17.6,16.8-26.7C190.2,82.9,195,76.6,191.1,68z M196.6,207.1c-4.4,7.1-7.5,14.6-9.9,22.5
		c-3,9.4-1.2,17.7,5.4,24.9C191.6,238.6,190.7,222.6,196.6,207.1z M165.6,79.8c-3.5,5.9-6.6,10-5.8,15.4c0.4,2.8,1.4,5.5,1.7,8.3
		c0.9,7,1.7,14,2.5,21.8C170.1,110.3,165.2,95.8,165.6,79.8z M186.3,60.4c-3.7,3.2-12,23-13,31.4c5.6-6.4,9.6-13.6,13.6-20.8
		C189.2,67.2,190.7,63.7,186.3,60.4z M169.6,71.3c-5.1,8.6-0.5,18-1.6,29.1C172.9,89.4,173.4,80.1,169.6,71.3z M173.8,79.4
		c1.9-9.2,3.8-18.6,0.4-27.8C171.2,64.3,170.4,71.5,173.8,79.4z M176.4,50.3c0.6,3.6,1.5,6.7,1.7,9.8c0.2,3.2-0.2,6.4-0.3,10
		C186.3,60.6,186,56.7,176.4,50.3z"/>
</g>
<g>
	<path class="st2" d="M270.5,102.9c0.3,4.7,0.6,9.2,2.5,13.5c4.5,10.7,12.3,18.9,20.4,26.6c3.6,3.4,5.1,7.6,6.1,12
		c2.3,8.8,3.3,18,4.5,27c1.2,8.4,1.4,16.7,1.4,25.1c0.1,3.4-0.6,6.9-1.3,10.3c-3,16.8-9.6,31.8-20.8,44.8c-4,4.5-7,9.9-11.9,13.6
		c-0.6,0.5-1,1.4-1.3,2.1c-4.5,13.5-11.1,26-17.1,38.8c-1.1,2.3-2.8,4.2-4.6,6c-0.8,0.8-1.6,2.3-3,1.3s-0.9-2.6-0.1-3.9
		c3.3-5.5,6.7-11,9.8-16.6c5-9.1,9.1-18.5,12.5-28.2c1.7-4.7-0.1-8.6-2.5-12.3c-3.9-5.9-9.2-10.2-15.1-14c-6.4-4.2-13-8-19.6-11.8
		c-6.5-3.8-10.3-10.2-14.2-16.3c-1.6-2.5-0.7-5.7-0.6-8.5c0.2-8.2-0.2-16.8,2.5-24.5c6.4-18.6,12-37.9,26.6-52.2
		c5.5-5.3,11.9-9.4,16.2-16.1c2.7-4.2,4.2-8.9,5.9-13.7C267.5,104.5,267.9,102.9,270.5,102.9z"/>
	<path class="st3" d="M270.5,102.9c0.3,4.7,0.6,9.2,2.5,13.5c4.5,10.7,12.3,18.9,20.4,26.6c3.6,3.4,5.1,7.6,6.1,12
		c2.3,8.8,3.3,18,4.5,27c1.2,8.4,1.4,16.7,1.4,25.1c0.1,3.4-0.6,6.9-1.3,10.3c-3,16.8-9.6,31.8-20.8,44.8c-4,4.5-7,9.9-11.9,13.6
		c-0.6,0.5-1,1.4-1.3,2.1c-4.5,13.5-11.1,26-17.1,38.8c-1.1,2.3-2.8,4.2-4.6,6c-0.8,0.8-1.6,2.3-3,1.3s-0.9-2.6-0.1-3.9
		c3.3-5.5,6.7-11,9.8-16.6c5-9.1,9.1-18.5,12.5-28.2c1.7-4.7-0.1-8.6-2.5-12.3c-3.9-5.9-9.2-10.2-15.1-14c-6.4-4.2-13-8-19.6-11.8
		c-6.5-3.8-10.3-10.2-14.2-16.3c-1.6-2.5-0.7-5.7-0.6-8.5c0.2-8.2-0.2-16.8,2.5-24.5c6.4-18.6,12-37.9,26.6-52.2
		c5.5-5.3,11.9-9.4,16.2-16.1c2.7-4.2,4.2-8.9,5.9-13.7C267.5,104.5,267.9,102.9,270.5,102.9z M236.2,151.1
		c-2.8,6.4-5.4,12.6-7.9,18.7c-1.8,4.4-0.4,7.3,1.7,10.6c1.5,2.2,3.1,4.3,5.1,6.1c8.1,7.3,16.1,14.7,24.1,22
		c5.4,5,10.3,10.5,15.3,17.3c0-3.3,0.7-5.7-0.1-7.4c-4.4-10.3-9.2-20.5-15.9-29.7C249.8,177.1,242.8,164.6,236.2,151.1z
		 M222.5,185.5c-0.7,2.7-1.2,4.2-1.6,5.6c-1.3,5-0.7,10.2,2,14.3c5.5,8.6,13,15.6,21.2,21.7c10,7.5,21.3,13.6,28,25.2
		c1.8-5.7,1.7-10.6-1.6-15.2c-3.7-5.2-8.2-9.5-12.7-14C246.2,210.8,230.1,202.9,222.5,185.5z M270.2,263.7c2.4-4.5,2.2-8-0.8-12
		c-5.3-7.1-12.8-11.9-19.4-17.4c-6.8-5.7-14.4-10.7-20.4-17.3c-3.4-3.7-6.6-7.7-9.8-11.6c-0.8,7.2,1.1,14.3,5.2,20
		c4.6,6.6,10.6,12.5,18.9,15c1,0.3,2.3,0.7,2.8,1.4c2.8,4,7.6,5.1,11.7,8.6c-1.1-4.5-5.3-3.8-7.5-7.3
		C260.8,247.9,264.9,256.4,270.2,263.7z M225.5,178c-2.3,3.5-1.7,7,1.2,11.9c4.7,7.4,11,13.1,17.6,18.7
		c10.7,9.2,22.7,17.3,29.6,30.5c1.2-9-0.7-12.8-8.4-21.6C253.3,203.2,235.9,194.1,225.5,178z M276.3,252.7
		c12.8-18.2,27.2-35.7,26-59.9C289.9,211.1,279.6,230.2,276.3,252.7z M291.9,146.2c-9.3,18.5-19.7,36.5-15.1,58.5
		c2.9-6.3,5.7-12.4,8.5-18.6c4.2-9.4,8.2-18.9,9.7-29.2C295.5,152.7,295.5,148.7,291.9,146.2z M276.9,220.6
		c7.2-14.1,15.3-26.8,23.6-39.3c0.5-0.6,1-1.5,0.9-2.3c-1-6.9-1.4-14.1-4-21.7c-1.3,4.5-2,8.1-3.3,11.7c-4.3,11.8-9.6,23.3-15,34.7
		C276.8,208.7,275.6,214,276.9,220.6z M247.2,137.1c-3.1,4.9-9.2,6.8-7,13.2c1.3,4,2.8,8,4.9,11.7c9.3,15.7,21.1,29.7,28.8,46.3
		c-0.1-3.7-0.6-7.4-2-10.9c-3.6-9.3-9.6-17.4-14.5-26c-4.4-7.7-8.2-15.6-8.9-24.7C248.5,143.9,247.9,141.2,247.2,137.1z M251,134.9
		c0,22.5,10.8,40.7,22.2,58.6c-1.2-6.1-1.6-12.4-3.6-18.3C264.6,161.3,256,149,251,134.9z M274,184.7c1.9-10.9,6.8-20.7,11.8-30.4
		c1.6-2.9,2.6-6.3,3.2-9.6c0.3-2-0.1-3.4-2.3-4.4C280.3,154.6,269.2,167.4,274,184.7z M300.3,219c-0.5,0.5-0.9,0.8-1.1,1.2
		c-5.7,12.1-12.4,23.5-20.5,34.1c-2.9,3.7-5.2,7.9-4.8,13.3C287.2,253.7,296.3,237.9,300.3,219z M278.6,131.6
		c-3.6,12.3-9.2,23.6-6.8,36.6c2.8-7.9,5.9-15.6,10.3-22.8C286.1,138.6,285.9,137.2,278.6,131.6z M260.1,125.4
		c-2.7,2.8-6.5,4.8-4.1,9.4c2.9,5.6,6.3,11,10.5,16.5C267.9,141.3,264.3,133.3,260.1,125.4z M276.9,228.3
		c4.2-7.1,7.8-14.6,12.6-21.4c4.9-6.8,8.6-14.2,11.6-22C291.9,198.7,282.1,212.2,276.9,228.3z M254.4,135.7
		c3.4,10.9,8.9,20.9,13.5,32.2c1.1-3.8,0.5-6.8-0.4-9.2C264.6,150.3,258.1,143.8,254.4,135.7z M270.6,149.9c2.2-7,4.1-13,6.2-19
		c0.6-1.8-0.5-2.5-1.4-3.7C272.5,131.7,270.3,142,270.6,149.9z M271.1,121.7c-0.4,4-0.9,7.8-1.3,11.5
		C271.5,129.4,274.9,125.7,271.1,121.7z M266.4,117.3c-3.4,3.1-2.5,5.7,0.2,9C266.5,122.9,266.5,120.4,266.4,117.3z M262.7,124.3
		c0.5,2.6,1.1,5.2,3.1,8C265.4,129,264.1,126.6,262.7,124.3z"/>
</g>
<g>
	<path class="st4" d="M336.6,211.8c-0.6-1.3,0-2.7-0.5-4c-0.2-0.6,0.1-0.7,0.6-0.6c1.3,0.3,2.3,1.2,3.4,1.8c3.1,1.7,6.5,1.6,9.8,1.9
		c0.9,0.1,1.4-0.8,2.3-0.6c2.1,0.5,4.2,0.6,6.1,1.6c2.3,1.2,4.8,1.7,7.3,2.3c2.9,0.7,5.6,1.9,7.7,4.3c2.2,2.5,3.6,5.3,4.6,8.4
		c0.7,2.3,0.1,4.5,0.2,6.8c0.1,1.9-0.3,3.8-0.2,5.7c0.1,2.6-0.2,5.2,0.7,7.8c0.7,2,0.6,4.3,0.9,6.4c0.6,4.1,0,8-1.2,11.9
		c-0.2,0.6-0.6,1.7-1.4,1.3c-0.8-0.3-1-1.3-0.5-2.2c0.2-0.3,0.6-0.6,0.7-0.9c0.7-2.4,1.4-4.9,1.4-7.4c-0.1-3.1,0.3-6.3-1.3-9.2
		c-0.6-1.2-1.7-1.7-2.8-2.2c-1.4-0.6-2.8-1.4-4.3-1.4c-1.3,0-2.6,0.4-3.7,0c-2.5-0.8-5.1-1.1-7.6-2.3c-4.4-2.1-7.2-5.6-9.2-9.9
		c-0.8-1.8-1-3.8-2-5.5c-1.6-2.8-4.1-5-6.4-7.3c-1.3-1.3-2.9-2.4-3.6-4.3c-0.2-0.7-0.4-1.6-1.2-2.1
		C336.5,212,336.6,211.8,336.6,211.8z"/>
</g>
</svg>
