<?xml version="1.0" encoding="utf-8"?>
<!-- Generator: Adobe Illustrator 24.2.1, SVG Export Plug-In . SVG Version: 6.00 Build 0)  -->
<svg version="1.1" id="Layer_1" xmlns="http://www.w3.org/2000/svg" xmlns:xlink="http://www.w3.org/1999/xlink" x="0px" y="0px"
	 viewBox="0 0 1200 320" style="enable-background:new 0 0 1200 320;" xml:space="preserve">
<style type="text/css">
	.st0{fill:#4B8B91;}
	.st1{fill:#FDCE35;}
</style>
<g>
	<path class="st0" d="M83.8,165.1c11.2,23.7,24.5,46.1,45.4,62.6c10,7.9,21.1,14.2,31.5,21.5c5.7,4,11.4,8.2,16.6,12.8
		c5,4.4,10.9,6,17.1,6.2c17.4,0.6,24.7,9.4,22.1,26.8c-1.9,12.5-2.3,25.1-0.5,37.7c0.2,1.2,0.3,2.4,0.7,3.4c0.7,1.7,1,4.1,3.6,3.7
		c2.4-0.4,2-2.8,2-4.3c0-4.8,0.2-9.8-0.8-14.5c-1.4-6.5,0-12.8-0.4-19.2c-0.1-2.7,2-4,3.1-5.9c5.9-10.2,14.1-18.2,23-25.8
		c12.7-10.7,17.1-26.4,23.3-41.1c11.4-27,13.8-55.2,12.6-84c-0.1-2.8,1.3-5.7-1-10.2c-12.5,20.2-30.6,61.8-30.7,61.7
		c-1.6,4.1-3.9,7.6-5.9,11.6c-3.5,7.1-5.6,15-7.8,22.5c-1.9,6.2-4.5,48.5-14.4,60.1c-4.4-9.1-3.2-17.6-3-25.7
		c0.1-3.6,0.8-8,4.2-10.1c-0.4,0.1-0.8,0-1.2-0.1c-1.8-0.5-3.5-0.9-5.3-1.4c-1-0.1-1.8-0.6-2.2-1.3c0.2,0.5,0.3,1.1,0.5,1.6
		c-10-17.2-12.9-37.4,1.5-48.3c-0.1,0.2,8.2-2.7,11.7-4.7c4.8-2.7,14.2-11.2,14.8-11.4c10.5-15,16.4-31.6,20.9-48.8
		c4.6-17.2,16.2-31.8,19.2-49.7c-3.9,3.2-7.7,6.4-9.8,10.9c-2.4,5.1-5.8,9.2-10,12.7c-15.5,13-24.5,30.9-36.1,46.9
		c-9.4,12.9-14.9,27.2-18,42.6c-0.8,4.2-2.1,8.3-5.6,11.7c-2.6-4.2-4-8.6-3.9-13.2c0.1-9.9-3.5-19.8,1.3-29.7
		c2.6-5.4,7.1-8.4,11.8-10.5c10.1-4.7,18.2-11.4,22.2-21.7c4.5-11.9,13.1-20,22.5-27.7c12.3-10,16.3-23.8,17.7-39.1
		c-14,14.9-32.9,24.2-44.6,41.8c-0.9-7.8,0.4-14.9,4.2-21.2c9.8-16.6,7.3-33.9,4.8-51.6c-1.6-11.3-7.6-20.6-12.2-30.6
		c-0.6-1.3-0.9-3-2.7-3.5c-8.8,49.8-20.1,99.1-24.2,149.6c-1.1-6.7,0.4-13.1,0.3-19.7c-0.1-7.4,0.3-15.1-2-22
		c-4.3-13.2-1.6-25.4,3-37.6c4.2-11.1,5.5-22.7,5.6-34.3c0.1-8.8,1.2-17.4,2.2-26.1c1.4-13.3-1.7-25.6-5.3-38.8
		c-4.4,2.5-4.5,6.3-4.8,9.4c-2.1,19-6,37.7-11,56c-4.7,17.1-2,33.3,2.2,49.9c5.4,21.7,9.6,43.6,4.3,66.6c-5.4-6.4-5.7-13.9-6.6-21
		c-1.7-13.2-8.4-24.5-12.7-36.8c-6.7-19.5-13.4-38.9-24.6-56.5c-4.4-7-10.4-13.1-13.5-21c-0.5-1.3-1.4-1.8-2.8-1.4
		c-1.5,0.5-2.1,1.4-2.1,3.1c-0.4,11.7-1.6,23.4,0.8,34.9c2.7,12.9,4.5,26.1,9.1,38.5c1.5,4.1,3.3,8.2,5.2,13c-0.1,0,4,8.6,6.5,12.7
		c3.5,5.9,8.6,10.6,13.7,15.1c4,3.6,8.2,6.9,12.1,10.6c2.5,2.3,5.5,4.2,8,6.6c0,0,0-0.1,0-0.1c0.1,0.2,0.3,0.3,0.4,0.5
		c0.2,0.2,0.5,0.5,0.7,0.7c0.2,0.2,0.4,0.5,0.5,0.7c5.5,6.8,6.9,14.8,4.1,24.3c-1.8-2.1-2.9-3.3-3.6-5.7c-1.8,1.4-5.5,1.6-6.5,3.6
		c5.5,2.5,10.9,9.1,11.1,14.8c0.4,11.2,3.7,21.7,5.7,32.7c-7.7-21.1-48.1-60.2-52-64.9c-4.4-5.3-9.7-10.4-13.5-16.3
		c-3.5-4.2-14-19.9-19.3-23.3c-1.6,14.1-2,26.8,6.3,38.6c7.3,10.4,13.4,21.7,20.3,33.1c-21.6-13.4-43.5-25-61.8-43
		C79.5,160.4,82.6,162.6,83.8,165.1z M191.1,236.6c9.1,1.1,13.9,6.9,17.8,14.3c7.7,14.5,8.5,16.4,6.7,21.9
		C207.3,260.7,199.2,248.7,191.1,236.6z"/>
	<path class="st1" d="M186.8,183.8c-0.9,0.2-2.1-0.1-3.1-0.1c-0.4,0-1.8-0.2-2.1-0.3c-8.9-2.2-17.4-5.1-25.4-9.8
		c-6.1-4.4-11.3-8.2-15.6-14.7c-1.9-2.9-4.6-5.3-6.1-9.6c-6.6-18-3.6-34.2,10.7-35.1c11.8,0.4,23.6-1,32.1,9.7
		c8.7,10.9,7.4,23.5,9.5,36.1c0.8,12.1,1.2,17,2.2,20C188.9,181.8,188.5,183.4,186.8,183.8z"/>
	<path class="st1" d="M225.4,192.3c13-6.9,21.7,2.5,21.8,2.7c15.4,20.4,8.8,53.9-19.1,58.4c-3.6-0.3-5.9,0.6-7.4,2.2
		c-2.9,0.5-6.3,0.6-6.8-2.5c-0.1-0.5-0.3-0.9-0.5-1.2c-4.7-15.6-3.2-31.1,2-46.8C215.1,205.2,219.9,195.2,225.4,192.3z"/>
</g>
<g>
	<path class="st0" d="M483.7,333.3c-18.3,18-40.2,29.6-61.8,43c7-11.4,13-22.7,20.3-33.1c8.2-11.8,7.9-24.5,6.3-38.6
		c-5.3,3.4-15.8,19.1-19.3,23.3c-3.8,5.9-9,11-13.5,16.3c-3.9,4.6-44.2,43.8-52,64.9c2-11,5.3-21.4,5.7-32.7
		c0.2-5.7,5.6-12.3,11.1-14.8c-1-2-4.7-2.2-6.5-3.6c-0.7,2.4-1.8,3.6-3.6,5.7c-2.8-9.5-1.4-17.5,4.1-24.3c0.1-0.2,0.3-0.5,0.5-0.7
		c0.2-0.2,0.5-0.5,0.7-0.7c0.1-0.2,0.3-0.3,0.4-0.5c0,0,0,0.1,0,0.1c2.5-2.4,5.5-4.2,8-6.6c3.9-3.6,8.1-7,12.1-10.6
		c5.1-4.5,10.1-9.2,13.7-15.1c2.5-4.1,6.6-12.7,6.5-12.7c1.9-4.8,3.7-8.9,5.2-13c4.6-12.5,6.4-25.6,9.1-38.5
		c2.4-11.5,1.2-23.2,0.8-34.9c0-1.6-0.6-2.6-2.1-3.1c-1.3-0.4-2.3,0.1-2.8,1.4c-3,7.9-9,14-13.5,21c-11.1,17.6-17.8,37-24.6,56.5
		c-4.2,12.2-11,23.6-12.7,36.8c-0.9,7.1-1.2,14.6-6.6,21c-5.4-23-1.1-44.9,4.3-66.6c4.1-16.6,6.9-32.9,2.2-49.9
		c-5-18.4-8.9-37.1-11-56c-0.4-3.2-0.5-6.9-4.8-9.4c-3.6,13.1-6.7,25.5-5.3,38.8c1,8.7,2.1,17.3,2.2,26.1
		c0.1,11.7,1.4,23.3,5.6,34.3c4.6,12.2,7.3,24.4,3,37.6c-2.3,6.9-1.9,14.6-2,22c-0.1,6.6,1.3,13,0.3,19.7
		c-4.1-50.5-15.4-99.8-24.2-149.6c-1.8,0.5-2.1,2.3-2.7,3.6c-4.6,10-10.6,19.3-12.2,30.6c-2.5,17.6-5,35,4.8,51.6
		c3.7,6.3,5.1,13.5,4.2,21.2c-11.6-17.6-30.5-26.9-44.5-41.8c1.3,15.3,5.4,29.1,17.7,39.1c9.4,7.7,18,15.8,22.5,27.7
		c4,10.4,12.1,17,22.2,21.7c4.7,2.2,9.1,5.1,11.8,10.5c4.8,9.9,1.2,19.8,1.3,29.7c0,4.6-1.4,9-4,13.2c-3.5-3.4-4.7-7.5-5.5-11.7
		c-3-15.5-8.5-29.7-18-42.6c-11.7-15.9-20.6-33.9-36.1-46.9c-4.2-3.5-7.6-7.7-10-12.7c-2.1-4.5-5.9-7.7-9.8-11
		c3,18,14.6,32.5,19.2,49.7c4.6,17.2,10.5,33.8,20.9,48.8c0.6,0.2,10,8.6,14.8,11.4c3.5,2,11.8,4.9,11.7,4.7
		c14.4,10.9,11.6,31,1.5,48.3c0.2-0.5,0.3-1.1,0.5-1.6c-0.5,0.7-1.2,1.2-2.2,1.3c-1.8,0.5-3.5,0.9-5.3,1.4c-0.4,0.1-0.8,0.2-1.2,0.1
		c3.3,2.1,4,6.4,4.2,10.1c0.3,8.1,1.4,16.6-3,25.7c-10-11.7-12.6-54-14.4-60.1c-2.3-7.5-4.3-15.5-7.8-22.5c-2-4-4.3-7.6-5.9-11.6
		c-0.1,0.1-18.2-41.5-30.7-61.7c-2.3,4.5-0.9,7.4-1,10.2c-1.2,28.8,1.2,57,12.6,84c6.2,14.7,10.7,30.4,23.3,41.1
		c8.9,7.6,17.1,15.5,23,25.8c1.1,2,3.2,3.2,3.1,5.9c-0.3,6.4,1.1,12.7-0.4,19.2c-1,4.7-0.8,9.6-0.8,14.5c0,1.5-0.4,4,2,4.3
		c2.6,0.4,3-2,3.6-3.7c0.4-1.1,0.5-2.3,0.7-3.4c1.7-12.6,1.4-25.2-0.5-37.7c-2.6-17.5,4.7-26.2,22.1-26.8c6.2-0.2,12.1-1.8,17.1-6.2
		c5.2-4.6,10.9-8.8,16.6-12.8c10.4-7.3,21.5-13.7,31.5-21.5c20.9-16.5,34.2-38.9,45.4-62.6C482.6,340.6,485.7,338.4,483.7,333.3z
		 M349.7,450.8c-1.8-5.5-1-7.4,6.7-21.9c3.9-7.4,8.7-13.2,17.8-14.3C366,426.7,357.9,438.7,349.7,450.8z"/>
</g>
<g>
	<path class="st0" d="M1081.7,235.1c-18.3,18-40.2,29.6-61.8,43c6.9-11.4,13.1-22.7,20.3-33.1c8.2-11.8,7.8-24.5,6.3-38.6
		c-5.3,3.4-15.8,19.1-19.3,23.3c-3.8,5.9-9,11-13.5,16.3c-3.9,4.6-44.2,43.8-52,64.9c2-11,5.3-21.4,5.7-32.7
		c0.2-5.7,5.6-12.3,11.1-14.8c-1-2-4.7-2.2-6.5-3.6c-0.7,2.4-1.8,3.6-3.6,5.7c-2.8-9.5-1.4-17.5,4.1-24.3c0.1-0.2,0.3-0.5,0.5-0.7
		c0.2-0.2,0.5-0.5,0.7-0.7c0.1-0.2,0.3-0.3,0.4-0.5c0,0,0,0.1,0,0.1c2.5-2.4,5.5-4.2,8-6.6c3.9-3.6,8.1-7,12.1-10.6
		c5.1-4.5,10.2-9.2,13.7-15.1c2.5-4.1,6.6-12.7,6.5-12.7c1.9-4.8,3.7-8.9,5.2-13c4.6-12.5,6.4-25.6,9.2-38.5
		c2.4-11.5,1.2-23.2,0.8-34.9c-0.1-1.6-0.6-2.6-2.1-3.1c-1.3-0.4-2.3,0.1-2.8,1.4c-3,7.9-9,14-13.5,21c-11.1,17.6-17.8,37-24.6,56.5
		c-4.2,12.2-11,23.6-12.7,36.8c-0.9,7.1-1.2,14.6-6.7,21c-5.4-23-1.1-44.9,4.3-66.6c4.2-16.6,6.9-32.8,2.2-49.9
		c-5-18.4-8.9-37.1-11-56c-0.4-3.2-0.5-6.9-4.8-9.4c-3.6,13.2-6.7,25.5-5.3,38.8c1,8.7,2.1,17.3,2.2,26.1
		c0.1,11.7,1.4,23.3,5.6,34.3c4.6,12.2,7.3,24.4,3,37.6c-2.3,6.9-1.9,14.6-2,22c-0.1,6.6,1.3,13,0.3,19.7
		c-4.1-50.5-15.4-99.8-24.2-149.6c-1.8,0.5-2.1,2.3-2.7,3.6c-4.6,10-10.6,19.3-12.2,30.6c-2.5,17.6-5,35,4.8,51.6
		c3.7,6.3,5.1,13.4,4.2,21.2c-11.6-17.6-30.5-26.9-44.5-41.8c1.3,15.3,5.4,29.1,17.7,39.1c9.4,7.7,18,15.8,22.5,27.7
		c4,10.4,12.1,17,22.2,21.7c4.7,2.2,9.1,5.1,11.8,10.5c4.8,9.9,1.2,19.8,1.3,29.7c0,4.6-1.4,9-4,13.2c-3.5-3.4-4.7-7.5-5.5-11.7
		c-3-15.5-8.5-29.7-18-42.6c-11.7-15.9-20.6-33.9-36.1-46.9c-4.2-3.5-7.6-7.7-10-12.7c-2.1-4.5-5.9-7.7-9.8-10.9
		c3,18,14.6,32.5,19.2,49.7c4.6,17.2,10.5,33.8,20.9,48.8c0.6,0.2,10,8.6,14.8,11.4c3.5,2,11.8,4.9,11.7,4.7
		c14.4,10.9,11.6,31,1.5,48.3c0.2-0.5,0.3-1.1,0.5-1.6c-0.5,0.7-1.2,1.2-2.2,1.3c-1.8,0.5-3.5,0.9-5.3,1.4c-0.4,0.1-0.8,0.2-1.2,0.1
		c3.3,2.1,4,6.4,4.2,10.1c0.3,8.1,1.4,16.6-3,25.7c-10-11.7-12.6-54-14.4-60.1c-2.3-7.5-4.3-15.5-7.8-22.5c-2-4-4.3-7.6-5.9-11.6
		c-0.1,0.1-18.2-41.5-30.7-61.7c-2.3,4.5-0.9,7.4-1,10.2c-1.2,28.8,1.2,57,12.6,84c6.2,14.7,10.7,30.4,23.3,41.1
		c8.9,7.6,17.1,15.5,23,25.8c1.1,2,3.2,3.2,3.1,5.9c-0.3,6.4,1.1,12.7-0.4,19.2c-1,4.6-0.8,9.6-0.8,14.5c0,1.5-0.4,4,2,4.3
		c2.6,0.4,3-2,3.6-3.7c0.4-1.1,0.5-2.3,0.7-3.4c1.7-12.6,1.3-25.2-0.5-37.7c-2.6-17.5,4.7-26.2,22.1-26.8c6.2-0.2,12.1-1.8,17.1-6.2
		c5.2-4.6,10.9-8.8,16.6-12.8c10.4-7.3,21.5-13.7,31.5-21.5c20.9-16.5,34.2-38.9,45.4-62.6C1080.7,242.5,1083.7,240.2,1081.7,235.1z
		 M947.7,352.6c-1.8-5.5-1-7.4,6.7-21.9c3.9-7.4,8.7-13.2,17.8-14.3C964.1,328.5,956,340.5,947.7,352.6z"/>
	<path class="st1" d="M976.4,263.6c0.9,0.2,2.1-0.1,3-0.1c0.4,0,1.8-0.2,2.1-0.3c8.9-2.2,17.4-5.1,25.3-9.8
		c6.1-4.4,11.3-8.2,15.6-14.7c1.9-2.9,4.6-5.3,6.1-9.6c6.6-18,3.6-34.2-10.7-35.1c-11.8,0.4-23.6-1-32.1,9.7
		c-8.7,10.9-7.4,23.5-9.5,36.1c-0.8,12.1-1.2,17-2.2,20C974.3,261.6,974.8,263.2,976.4,263.6z"/>
	<path class="st1" d="M937.8,272.1c-13-6.9-21.7,2.5-21.8,2.7c-15.4,20.4-8.8,53.9,19.1,58.4c3.5-0.3,5.9,0.6,7.4,2.2
		c2.9,0.5,6.3,0.6,6.8-2.5c0.1-0.5,0.3-0.9,0.5-1.2c4.7-15.6,3.2-31.1-2-46.8C948.1,285.1,943.3,275,937.8,272.1z"/>
</g>
</svg>
