<?xml version="1.0" encoding="utf-8"?>
<!-- Generator: Adobe Illustrator 24.2.1, SVG Export Plug-In . SVG Version: 6.00 Build 0)  -->
<svg version="1.1" id="Layer_1" xmlns="http://www.w3.org/2000/svg" xmlns:xlink="http://www.w3.org/1999/xlink" x="0px" y="0px"
	 viewBox="0 0 1200 320" style="enable-background:new 0 0 1200 320;" xml:space="preserve">
<style type="text/css">
	.st0{fill:#4B8B91;}
	.st1{fill:#FDCE35;}
</style>
<g>
	<path class="st0" d="M83.79,205.14c11.23,23.66,24.47,46.07,45.4,62.56c9.96,7.85,21.05,14.25,31.48,21.53
		c5.73,4,11.37,8.2,16.62,12.8c5.01,4.39,10.86,6.01,17.11,6.22c17.38,0.58,24.74,9.36,22.12,26.81
		c-1.89,12.55-2.28,25.13-0.54,37.73c0.16,1.16,0.29,2.35,0.7,3.43c0.66,1.74,1.04,4.15,3.64,3.73c2.37-0.39,1.98-2.81,1.98-4.34
		c0-4.83,0.25-9.81-0.79-14.46c-1.44-6.47-0.03-12.8-0.37-19.17c-0.15-2.7,1.96-3.98,3.08-5.93c5.89-10.23,14.05-18.19,22.99-25.77
		c12.65-10.73,17.11-26.43,23.32-41.1c11.43-27,13.77-55.24,12.6-84.04c-0.11-2.78,1.26-5.68-1.03-10.16
		c-12.45,20.22-30.6,61.79-30.69,61.73c-1.64,4.07-3.92,7.6-5.91,11.63c-3.48,7.07-5.56,15.01-7.82,22.54
		c-1.85,6.17-4.47,48.49-14.43,60.15c-4.36-9.12-3.25-17.64-2.99-25.72c0.12-3.65,0.83-8.02,4.17-10.08
		c-0.41,0.07-0.82,0.04-1.19-0.1c-1.77-0.47-3.53-0.94-5.3-1.42c-1.02-0.11-1.76-0.63-2.24-1.31c0.16,0.54,0.31,1.09,0.49,1.63
		c-10.02-17.21-12.87-37.37,1.54-48.27c-0.05,0.16,8.23-2.7,11.73-4.72c4.75-2.74,14.21-11.16,14.77-11.37
		c10.47-15,16.36-31.59,20.94-48.8c4.57-17.19,16.17-31.75,19.18-49.72c-3.88,3.24-7.66,6.43-9.76,10.95
		c-2.35,5.05-5.76,9.22-9.95,12.73c-15.51,12.98-24.46,30.94-36.12,46.87c-9.44,12.89-14.94,27.17-17.96,42.63
		c-0.82,4.21-2.05,8.27-5.55,11.7c-2.55-4.17-3.98-8.6-3.95-13.2c0.06-9.89-3.52-19.81,1.31-29.73c2.64-5.43,7.05-8.37,11.75-10.54
		c10.12-4.69,18.24-11.37,22.19-21.74c4.53-11.87,13.08-20.02,22.51-27.68c12.29-9.99,16.34-23.78,17.68-39.11
		c-14.02,14.9-32.95,24.25-44.55,41.83c-0.94-7.76,0.45-14.93,4.17-21.21c9.8-16.55,7.32-33.95,4.81-51.59
		c-1.61-11.29-7.62-20.64-12.24-30.62c-0.6-1.29-0.91-3.04-2.74-3.55c-8.76,49.79-20.1,99.06-24.19,149.58
		c-1.07-6.68,0.39-13.1,0.28-19.66c-0.13-7.43,0.27-15.05-2.02-21.99c-4.34-13.18-1.65-25.4,2.98-37.62
		c4.21-11.09,5.47-22.68,5.57-34.34c0.07-8.78,1.22-17.44,2.16-26.1c1.45-13.27-1.67-25.63-5.29-38.78
		c-4.37,2.5-4.48,6.27-4.84,9.43c-2.14,18.99-5.96,37.67-11.01,56.03c-4.7,17.08-1.98,33.31,2.17,49.94
		c5.41,21.67,9.64,43.63,4.27,66.61c-5.4-6.37-5.73-13.9-6.65-21.01c-1.7-13.21-8.45-24.53-12.68-36.78
		c-6.73-19.49-13.45-38.95-24.57-56.5c-4.45-7.02-10.41-13.07-13.46-20.99c-0.49-1.28-1.45-1.78-2.78-1.37
		c-1.49,0.46-2.08,1.44-2.13,3.05c-0.39,11.66-1.63,23.38,0.81,34.91c2.73,12.91,4.52,26.06,9.15,38.52
		c1.54,4.15,3.29,8.23,5.22,13.03c-0.1,0,4,8.55,6.47,12.66c3.52,5.86,8.58,10.58,13.67,15.07c4.02,3.55,8.19,6.92,12.11,10.57
		c2.51,2.33,5.53,4.22,7.98,6.57c0-0.03,0-0.06-0.01-0.09c0.15,0.16,0.26,0.32,0.41,0.48c0.24,0.24,0.51,0.46,0.73,0.71
		c0.2,0.23,0.35,0.47,0.47,0.71c5.47,6.8,6.85,14.81,4.07,24.27c-1.84-2.07-2.88-3.27-3.59-5.7c-1.78,1.35-5.47,1.6-6.51,3.56
		c5.51,2.48,10.9,9.1,11.09,14.76c0.38,11.23,3.72,21.67,5.7,32.66c-7.73-21.1-48.05-60.24-51.97-64.88
		c-4.45-5.27-9.67-10.44-13.5-16.29c-3.52-4.2-14-19.9-19.32-23.33c-1.58,14.13-1.98,26.8,6.27,38.64
		c7.27,10.43,13.37,21.67,20.32,33.09c-21.59-13.43-43.51-25-61.78-43C79.54,200.38,82.6,202.63,83.79,205.14z M191.06,276.65
		c9.06,1.15,13.86,6.94,17.77,14.33c7.66,14.47,8.5,16.4,6.7,21.85C207.3,300.67,199.19,288.68,191.06,276.65z"/>
	<path class="st1" d="M186.82,223.78c-0.94,0.2-2.1-0.06-3.05-0.1c-0.4-0.01-1.77-0.19-2.09-0.27c-8.86-2.22-17.4-5.12-25.35-9.75
		c-6.1-4.36-11.29-8.22-15.61-14.71c-1.9-2.85-4.57-5.28-6.14-9.56c-6.61-18.01-3.61-34.25,10.68-35.14
		c11.79,0.4,23.6-0.96,32.11,9.72c8.66,10.86,7.39,23.49,9.47,36.13c0.81,12.13,1.17,17.03,2.22,20.01
		C188.93,221.78,188.46,223.44,186.82,223.78z"/>
	<path class="st1" d="M225.4,232.34c13.01-6.92,21.66,2.51,21.81,2.71c15.43,20.43,8.77,53.87-19.13,58.36
		c-3.55-0.32-5.86,0.64-7.38,2.23c-2.93,0.53-6.32,0.64-6.84-2.54c-0.08-0.5-0.26-0.9-0.5-1.22c-4.73-15.64-3.17-31.11,1.98-46.8
		C215.11,245.25,219.94,235.24,225.4,232.34z"/>
</g>
<g>
	<path class="st0" d="M483.68,373.32c-18.27,18-40.19,29.57-61.78,43c6.95-11.42,13.05-22.66,20.32-33.09
		c8.25-11.84,7.85-24.51,6.27-38.64c-5.32,3.43-15.8,19.13-19.32,23.33c-3.82,5.85-9.04,11.02-13.5,16.29
		c-3.92,4.64-44.24,43.78-51.97,64.88c1.98-10.99,5.32-21.42,5.7-32.66c0.19-5.67,5.58-12.28,11.09-14.76
		c-1.04-1.96-4.73-2.21-6.51-3.56c-0.71,2.43-1.75,3.63-3.59,5.7c-2.78-9.47-1.41-17.48,4.07-24.27c0.12-0.24,0.27-0.48,0.47-0.71
		c0.23-0.25,0.49-0.47,0.73-0.71c0.14-0.16,0.26-0.32,0.41-0.48c0,0.03,0,0.06-0.01,0.09c2.46-2.35,5.48-4.24,7.98-6.57
		c3.92-3.65,8.09-7.02,12.11-10.57c5.09-4.49,10.15-9.21,13.67-15.07c2.46-4.11,6.57-12.66,6.47-12.66
		c1.93-4.8,3.67-8.88,5.22-13.03c4.63-12.46,6.42-25.61,9.15-38.52c2.44-11.52,1.19-23.25,0.81-34.91c-0.05-1.6-0.64-2.59-2.13-3.05
		c-1.34-0.41-2.29,0.09-2.78,1.37c-3.05,7.92-9.01,13.97-13.46,20.99c-11.12,17.56-17.84,37.01-24.57,56.5
		c-4.23,12.25-10.98,23.57-12.68,36.78c-0.91,7.11-1.25,14.65-6.65,21.01c-5.37-22.99-1.13-44.94,4.27-66.61
		c4.15-16.63,6.87-32.85,2.17-49.94c-5.05-18.36-8.87-37.05-11.01-56.03c-0.36-3.17-0.47-6.94-4.84-9.43
		c-3.63,13.15-6.74,25.51-5.29,38.78c0.95,8.66,2.09,17.31,2.16,26.1c0.1,11.67,1.36,23.26,5.57,34.34
		c4.63,12.21,7.32,24.44,2.98,37.62c-2.29,6.94-1.88,14.57-2.02,21.99c-0.12,6.56,1.34,12.98,0.28,19.66
		c-4.08-50.52-15.43-99.78-24.19-149.58c-1.83,0.51-2.14,2.26-2.74,3.55c-4.62,9.98-10.64,19.32-12.24,30.62
		c-2.51,17.64-4.99,35.04,4.81,51.59c3.71,6.27,5.1,13.45,4.17,21.21c-11.6-17.58-30.53-26.93-44.55-41.83
		c1.34,15.33,5.39,29.12,17.68,39.11c9.42,7.66,17.98,15.8,22.51,27.68c3.95,10.36,12.07,17.05,22.19,21.74
		c4.7,2.18,9.11,5.12,11.75,10.54c4.83,9.92,1.25,19.84,1.31,29.73c0.03,4.6-1.4,9.03-3.95,13.2c-3.5-3.44-4.73-7.5-5.55-11.7
		c-3.02-15.47-8.52-29.74-17.96-42.63c-11.66-15.93-20.62-33.89-36.12-46.87c-4.19-3.51-7.61-7.67-9.95-12.73
		c-2.1-4.52-5.88-7.72-9.76-10.95c3.01,17.97,14.61,32.52,19.18,49.72c4.58,17.22,10.46,33.81,20.94,48.8
		c0.56,0.21,10.02,8.63,14.77,11.37c3.5,2.02,11.78,4.88,11.73,4.72c14.41,10.89,11.56,31.05,1.54,48.27
		c0.18-0.55,0.33-1.09,0.49-1.63c-0.47,0.69-1.21,1.21-2.24,1.31c-1.77,0.47-3.53,0.94-5.3,1.42c-0.38,0.14-0.78,0.17-1.19,0.1
		c3.33,2.07,4.05,6.44,4.17,10.08c0.26,8.08,1.37,16.6-2.99,25.72c-9.96-11.66-12.58-53.98-14.43-60.15
		c-2.27-7.54-4.34-15.47-7.82-22.54c-1.98-4.02-4.27-7.56-5.91-11.63c-0.09,0.06-18.25-41.51-30.69-61.73
		c-2.29,4.48-0.91,7.38-1.03,10.16c-1.18,28.8,1.17,57.03,12.6,84.04c6.21,14.67,10.66,30.37,23.32,41.1
		c8.94,7.58,17.1,15.54,22.99,25.77c1.12,1.95,3.23,3.23,3.08,5.93c-0.34,6.37,1.08,12.71-0.37,19.17
		c-1.04,4.65-0.78,9.63-0.79,14.46c0,1.53-0.39,3.95,1.98,4.34c2.61,0.43,2.99-1.98,3.64-3.73c0.41-1.08,0.54-2.27,0.7-3.43
		c1.74-12.6,1.35-25.18-0.54-37.73c-2.62-17.45,4.74-26.23,22.12-26.81c6.25-0.21,12.1-1.82,17.11-6.22
		c5.25-4.6,10.89-8.8,16.62-12.8c10.42-7.28,21.52-13.68,31.48-21.53c20.94-16.5,34.18-38.9,45.4-62.56
		C482.62,380.63,485.68,378.38,483.68,373.32z M349.69,490.83c-1.8-5.46-0.96-7.38,6.7-21.85c3.91-7.39,8.71-13.18,17.77-14.33
		C366.02,466.68,357.91,478.67,349.69,490.83z"/>
</g>
<g>
	<path class="st0" d="M1081.72,275.13c-18.27,18-40.19,29.57-61.78,43c6.95-11.42,13.05-22.66,20.32-33.09
		c8.25-11.84,7.85-24.51,6.27-38.64c-5.32,3.43-15.8,19.13-19.32,23.33c-3.82,5.85-9.04,11.02-13.5,16.29
		c-3.92,4.64-44.24,43.78-51.97,64.88c1.98-10.99,5.32-21.42,5.7-32.66c0.19-5.67,5.58-12.28,11.09-14.76
		c-1.04-1.96-4.73-2.21-6.51-3.56c-0.71,2.43-1.75,3.63-3.59,5.7c-2.78-9.47-1.41-17.48,4.07-24.27c0.12-0.24,0.27-0.48,0.47-0.71
		c0.23-0.25,0.49-0.47,0.73-0.71c0.14-0.16,0.26-0.32,0.41-0.48c0,0.03,0,0.06-0.01,0.09c2.46-2.35,5.48-4.24,7.98-6.57
		c3.92-3.65,8.09-7.02,12.11-10.57c5.09-4.49,10.15-9.21,13.67-15.07c2.46-4.11,6.57-12.66,6.47-12.66
		c1.93-4.8,3.67-8.88,5.22-13.03c4.63-12.46,6.42-25.61,9.15-38.52c2.44-11.52,1.19-23.25,0.81-34.91c-0.05-1.6-0.64-2.59-2.13-3.05
		c-1.34-0.41-2.29,0.09-2.78,1.37c-3.05,7.92-9.01,13.97-13.46,20.99c-11.12,17.56-17.84,37.01-24.57,56.5
		c-4.23,12.25-10.98,23.57-12.68,36.78c-0.91,7.11-1.25,14.65-6.65,21.01c-5.37-22.99-1.13-44.94,4.27-66.61
		c4.15-16.63,6.87-32.85,2.17-49.94c-5.05-18.36-8.87-37.05-11.01-56.03c-0.36-3.17-0.47-6.94-4.84-9.43
		c-3.63,13.15-6.74,25.51-5.29,38.78c0.95,8.66,2.09,17.31,2.16,26.1c0.1,11.67,1.36,23.26,5.57,34.34
		c4.63,12.21,7.32,24.44,2.98,37.62c-2.29,6.94-1.89,14.57-2.02,21.99c-0.12,6.56,1.34,12.98,0.28,19.66
		c-4.08-50.52-15.43-99.78-24.19-149.58c-1.83,0.51-2.14,2.26-2.74,3.55c-4.62,9.98-10.64,19.32-12.24,30.62
		c-2.51,17.64-4.99,35.04,4.81,51.59c3.71,6.27,5.1,13.45,4.17,21.21c-11.6-17.58-30.53-26.93-44.55-41.83
		c1.34,15.33,5.39,29.12,17.68,39.11c9.42,7.66,17.98,15.8,22.51,27.68c3.95,10.36,12.07,17.05,22.19,21.74
		c4.7,2.18,9.11,5.12,11.75,10.54c4.83,9.92,1.25,19.84,1.31,29.73c0.03,4.6-1.4,9.03-3.95,13.2c-3.5-3.44-4.73-7.5-5.55-11.7
		c-3.02-15.47-8.52-29.74-17.96-42.63c-11.66-15.93-20.62-33.89-36.12-46.87c-4.19-3.51-7.61-7.67-9.95-12.73
		c-2.1-4.52-5.88-7.72-9.76-10.95c3.01,17.97,14.61,32.52,19.18,49.72c4.58,17.22,10.46,33.81,20.94,48.8
		c0.56,0.21,10.02,8.63,14.77,11.37c3.5,2.02,11.78,4.88,11.73,4.72c14.41,10.89,11.56,31.05,1.54,48.27
		c0.18-0.55,0.33-1.09,0.49-1.64c-0.47,0.69-1.21,1.21-2.24,1.31c-1.77,0.47-3.53,0.94-5.3,1.42c-0.38,0.14-0.78,0.17-1.19,0.1
		c3.33,2.07,4.05,6.44,4.17,10.08c0.26,8.08,1.37,16.6-2.99,25.72c-9.96-11.66-12.58-53.98-14.43-60.15
		c-2.27-7.54-4.34-15.47-7.82-22.54c-1.98-4.02-4.27-7.56-5.91-11.63c-0.09,0.06-18.25-41.51-30.69-61.73
		c-2.29,4.48-0.91,7.38-1.03,10.16c-1.18,28.8,1.17,57.03,12.6,84.04c6.21,14.67,10.66,30.37,23.32,41.1
		c8.94,7.58,17.1,15.54,22.99,25.77c1.12,1.95,3.23,3.23,3.08,5.93c-0.34,6.37,1.08,12.71-0.37,19.17
		c-1.04,4.65-0.78,9.63-0.79,14.46c0,1.53-0.39,3.95,1.98,4.34c2.61,0.43,2.99-1.98,3.64-3.73c0.41-1.08,0.54-2.27,0.7-3.43
		c1.74-12.6,1.35-25.18-0.54-37.73c-2.62-17.45,4.74-26.23,22.12-26.81c6.25-0.21,12.1-1.82,17.11-6.22
		c5.25-4.6,10.89-8.8,16.62-12.8c10.42-7.28,21.52-13.68,31.48-21.53c20.94-16.5,34.18-38.9,45.4-62.56
		C1080.65,282.45,1083.71,280.19,1081.72,275.13z M947.72,392.65c-1.8-5.46-0.96-7.38,6.7-21.85c3.91-7.39,8.71-13.18,17.77-14.33
		C964.06,368.49,955.95,380.48,947.72,392.65z"/>
	<path class="st1" d="M976.43,303.59c0.94,0.2,2.1-0.06,3.05-0.1c0.4-0.01,1.77-0.19,2.09-0.27c8.86-2.22,17.4-5.12,25.35-9.75
		c6.1-4.36,11.29-8.22,15.61-14.71c1.9-2.85,4.57-5.28,6.14-9.56c6.61-18.01,3.61-34.25-10.68-35.14
		c-11.79,0.4-23.6-0.96-32.11,9.72c-8.66,10.86-7.39,23.49-9.47,36.13c-0.81,12.13-1.17,17.03-2.22,20.01
		C974.32,301.59,974.78,303.25,976.43,303.59z"/>
	<path class="st1" d="M937.85,312.15c-13.01-6.92-21.66,2.51-21.81,2.71c-15.43,20.43-8.77,53.87,19.13,58.36
		c3.55-0.32,5.86,0.64,7.38,2.23c2.93,0.53,6.32,0.64,6.84-2.54c0.08-0.5,0.26-0.9,0.5-1.22c4.73-15.64,3.17-31.11-1.98-46.8
		C948.14,325.07,943.31,315.05,937.85,312.15z"/>
</g>
</svg>
