<?xml version="1.0" encoding="UTF-8"?>
<svg width="27px" height="16px" viewBox="0 0 27 16" version="1.1" xmlns="http://www.w3.org/2000/svg" xmlns:xlink="http://www.w3.org/1999/xlink">
    <title>Logos / 02 Costsaver / 02 Mark / 02 Watermark</title>
    <g id="Components" stroke="none" stroke-width="1" fill="none" fill-rule="evenodd">
        <g id="01-Navigation-/-01-Global-Nav" transform="translate(-56.000000, -12.000000)" fill="#B0B6C0">
            <g id="Logos-/-02-Costsaver-/-02-Mark-/-02-Watermark" transform="translate(56.500000, 12.000000)">
                <path d="M15.4284029,3.17736812 C16.2187342,3.17736812 17.0850765,3.33783188 17.9331029,3.64113623 C18.5109697,3.84797681 19.0494573,4.11046957 19.5320815,4.4211942 C18.9716147,4.84229565 18.4825801,5.35615072 18.0869565,5.94049855 C17.8287023,5.80136812 17.5530479,5.6780058 17.2599934,5.5731942 C17.1134662,5.52032464 16.9669389,5.47394783 16.8213275,5.43313623 C16.335956,5.29771594 15.861574,5.22536812 15.4284029,5.22536812 C14.9787474,5.22536812 14.5748817,5.30791884 14.2397006,5.45354203 C13.7515817,5.66687536 13.4109059,6.01933913 13.2991789,6.46641159 C13.2863577,6.51835362 13.2771998,6.56936812 13.2698734,6.62038261 C13.2649892,6.65748406 13.261326,6.69458551 13.2594266,6.73223661 L13.2579681,6.7891942 L13.2579681,6.83278841 C13.2579681,7.0553971 13.3083368,7.30675942 13.5885702,7.57110725 C13.6389389,7.6109913 13.696634,7.6518029 13.7625713,7.69354203 C13.8633088,7.75846957 13.9759516,7.81875942 14.0959207,7.8771942 C14.5125243,8.07830092 15.0302817,8.24463653 15.5569004,8.40109398 L15.987038,8.5273971 C16.2742314,8.60976232 16.540911,8.69034667 16.7931723,8.77342423 L17.0273814,8.85203478 C17.3140253,8.95313623 17.5832691,9.0598029 17.8406076,9.18223768 L17.9028138,9.21246849 L18.0201035,9.2749913 L18.066809,9.30096232 C19.6078686,10.1226357 19.9581863,11.284829 19.972995,12.1363768 L19.9734948,12.237542 C19.9734948,12.7653101 19.8581046,13.2689623 19.6328189,13.735513 C19.5238393,13.9599768 19.3873858,14.1705275 19.2307848,14.3671652 C18.9239934,14.7502377 18.5311172,15.0758029 18.066809,15.3234551 C17.4165944,15.6694261 16.6464106,15.8521507 15.8405107,15.8521507 C14.1627738,15.8521507 12.5528057,15.2724406 11.0536489,14.1278609 C11.5454309,13.6585275 11.9630336,13.1103536 12.2853935,12.5028174 C13.4218954,13.3663536 14.6170083,13.8041507 15.8405107,13.8041507 C16.3203875,13.8041507 16.7645482,13.7030493 17.1262873,13.5101217 C17.4458998,13.3394551 17.6849224,13.1057159 17.8167969,12.8330203 C17.8332812,12.7987014 17.8470182,12.7643826 17.8607551,12.7291362 C17.9095975,12.6008271 17.9393609,12.4647884 17.9479252,12.3231674 L17.950503,12.237542 L17.950503,12.1939478 C17.950503,11.8897159 17.8589235,11.5307594 17.2077931,11.1597449 L17.0511921,11.0734841 C17.0282972,11.0604986 17.0054023,11.047513 16.9806758,11.0354551 C16.6303841,10.8684986 16.2228553,10.7298834 15.7347703,10.5852565 L15.3468971,10.4724406 C14.5492394,10.2387014 13.7286868,9.99754203 13.0235245,9.62281739 C12.9081343,9.56067246 12.7936599,9.49667246 12.6846802,9.42710725 C11.7383279,8.82278647 11.2626435,8.02518467 11.2319827,6.98822063 L11.2303974,6.83649855 C11.2303974,6.54710725 11.2670292,6.25493333 11.3384612,5.96646957 C11.3869983,5.77261449 11.4520198,5.58710725 11.5307782,5.40994783 C12.1342873,4.0371942 13.6004755,3.17736812 15.4284029,3.17736812 Z M6.20890875,0.229657971 C8.31157468,0.229657971 9.67153065,1.1878029 10.5525257,2.02722319 C10.0653226,2.50954203 9.65596214,3.07070145 9.34367595,3.69122319 L9.21814228,3.56664071 C8.53549772,2.9037353 7.63625648,2.27765797 6.20890875,2.27765797 C3.984671,2.27765797 2.1694,4.14430398 2.11649069,6.45894026 L2.11530391,6.60275942 C2.11530391,8.94386087 3.95147342,10.8480928 6.20890875,10.8480928 C7.44797975,10.8480928 8.38209092,10.4158609 9.33177061,9.4029913 C9.64222521,10.0272232 10.0515857,10.5920928 10.5397046,11.0781217 C9.27682289,12.3163826 7.89214045,12.8960928 6.20890875,12.8960928 C2.8736023,12.8960928 0.152948327,10.1337176 0.0941977329,6.71567682 L0.0932279582,6.56287536 C0.0932279582,3.07070145 2.83695058,0.229657971 6.20890875,0.229657971 Z M24.1192084,8.58852174 C25.082625,8.58852174 25.8665457,9.38249275 25.8665457,10.3582609 C25.8665457,11.3349565 25.082625,12.1289275 24.1192084,12.1289275 C23.1557917,12.1289275 22.371871,11.3349565 22.371871,10.3582609 C22.371871,9.38249275 23.1557917,8.58852174 24.1192084,8.58852174 Z" id="Shape"></path>
            </g>
        </g>
    </g>
</svg>