<?xml version="1.0" encoding="UTF-8"?>
<svg width="118px" height="32px" viewBox="0 0 118 32" version="1.1" xmlns="http://www.w3.org/2000/svg" xmlns:xlink="http://www.w3.org/1999/xlink">
    <!-- Generator: Sketch 64 (93537) - https://sketch.com -->
    <title>logo_trafalgar_fullColor</title>
    <desc>Created with Sketch.</desc>
    <g id="Page-1" stroke="none" stroke-width="1" fill="none" fill-rule="evenodd">
        <g id="Desktop-HD" transform="translate(-141.000000, -24.000000)">
            <g id="Group-8">
                <g id="logo_trafalgar_fullColor" transform="translate(141.000000, 24.000000)">
                    <polygon id="BG" fill="#ED1941" points="0 31.39008 117.504 31.39008 117.504 -4.54747351e-15 0 -4.54747351e-15"></polygon>
                    <path d="M79.045696,10.254208 C81.989056,10.254208 83.495616,12.535168 83.495616,12.535168 C83.550656,12.604288 83.544256,12.702208 83.479616,12.762368 L82.124096,14.058368 C82.089536,14.092288 82.040896,14.107648 81.992256,14.104448 C81.944256,14.099328 81.899456,14.076288 81.871296,14.036608 L81.630656,13.705088 C81.045696,12.902528 80.051776,12.384768 79.096256,12.384768 C77.284416,12.384768 75.864256,13.833088 75.864256,15.683328 C75.864256,17.453568 77.328576,19.005568 78.995776,19.005568 C79.924416,19.005568 81.107136,18.299648 81.455296,17.260288 L79.288256,17.260288 C79.194176,17.260288 79.118656,17.184128 79.118656,17.090688 L79.118656,15.299328 C79.118656,15.206528 79.194176,15.130368 79.288256,15.130368 L83.736896,15.130368 C83.830976,15.130368 83.906496,15.206528 83.906496,15.299328 L83.906496,16.032768 C83.906496,18.990208 81.809216,21.136128 78.921536,21.136128 C76.057536,21.136128 73.637056,18.655488 73.637056,15.720448 C73.637056,12.706688 76.063936,10.254208 79.045696,10.254208 Z M26.095872,10.463296 C26.931712,10.463296 27.719552,10.789696 28.311552,11.383616 C28.900992,11.974976 29.226112,12.758976 29.224832,13.590976 C29.223072,15.352736 28.1199431,16.1588649 27.5225046,16.4658464 L27.373312,16.537536 L30.186752,20.646976 C30.224512,20.702016 30.228352,20.772416 30.196992,20.830656 C30.174432,20.874816 30.134592,20.906736 30.088002,20.919936 L30.039552,20.926656 L27.728512,20.926656 C27.683392,20.926656 27.640792,20.909016 27.609352,20.879136 L27.581952,20.845376 L25.172992,16.843456 L24.490112,16.843456 L24.490112,20.760896 C24.490112,20.834112 24.4417792,20.8962688 24.3746048,20.9182029 L24.321152,20.926656 L22.373632,20.926656 C22.297856,20.926656 22.2327296,20.877504 22.2097101,20.8106573 L22.200832,20.757696 L22.200832,10.627776 C22.200832,10.555584 22.2495744,10.493632 22.3169126,10.4717389 L22.370432,10.463296 L26.095872,10.463296 Z M102.469312,10.463296 C103.305152,10.463296 104.091712,10.789696 104.683072,11.383616 C105.273792,11.974976 105.598912,12.758976 105.597632,13.590976 C105.594699,15.352736 104.491472,16.1588649 103.894518,16.4658464 L103.745472,16.537536 L106.560192,20.646976 C106.597312,20.702016 106.600512,20.772416 106.570432,20.830656 C106.547392,20.874816 106.506712,20.906736 106.460002,20.919936 L106.411712,20.926656 L104.100032,20.926656 C104.055392,20.926656 104.013272,20.909016 103.982312,20.879136 L103.955392,20.845376 L101.545792,16.843456 L100.862912,16.843456 L100.862912,20.760896 C100.862912,20.834112 100.814989,20.8962688 100.747978,20.9182029 L100.694592,20.926656 L98.747072,20.926656 C98.670784,20.926656 98.6055552,20.877504 98.5825152,20.8106573 L98.573632,20.757696 L98.573632,10.627776 C98.573632,10.555584 98.6223744,10.493632 98.6897126,10.4717389 L98.743232,10.463296 L102.469312,10.463296 Z M18.456,10.463488 C18.5488,10.463488 18.62496,10.539008 18.62496,10.632448 L18.62496,12.419968 C18.62496,12.514048 18.5488,12.589568 18.456,12.589568 L15.6496,12.589568 L15.6496,20.757888 C15.6496,20.850688 15.57344,20.926848 15.48128,20.926848 L13.59584,20.926848 C13.5024,20.926848 13.42624,20.850688 13.42624,20.757888 L13.42624,12.589568 L10.62048,12.589568 C10.52704,12.589568 10.45088,12.514048 10.45088,12.419968 L10.45088,10.632448 C10.45088,10.539008 10.52704,10.463488 10.62048,10.463488 L18.456,10.463488 Z M50.026048,10.463552 C50.120128,10.463552 50.195648,10.538432 50.195648,10.632512 L50.195648,12.420672 C50.195648,12.514112 50.120128,12.588992 50.026048,12.588992 L46.429888,12.588992 L46.429888,14.182592 L49.914048,14.182592 C50.006848,14.182592 50.082368,14.258752 50.082368,14.350912 L50.082368,16.139712 C50.082368,16.233152 50.006848,16.308672 49.914048,16.308672 L46.429888,16.308672 L46.429888,20.757952 C46.429888,20.851392 46.353728,20.926912 46.260288,20.926912 L44.374208,20.926912 C44.282048,20.926912 44.206528,20.851392 44.206528,20.757952 L44.206528,10.632512 C44.206528,10.538432 44.282048,10.463552 44.374208,10.463552 L50.026048,10.463552 Z M67.125952,10.46368 C67.219392,10.46368 67.294912,10.53856 67.294912,10.632 L67.294912,18.80032 L71.141952,18.80032 C71.235392,18.80032 71.311552,18.87648 71.311552,18.96928 L71.311552,20.75744 C71.311552,20.85088 71.235392,20.92704 71.141952,20.92704 L65.241152,20.92704 C65.147712,20.92704 65.072192,20.85088 65.072192,20.75744 L65.072192,10.632 C65.072192,10.53856 65.147712,10.46368 65.241152,10.46368 L67.125952,10.46368 Z M36.89536,10.46304 C36.94768,10.46304 36.99316,10.4868 37.02397,10.52379 L37.0496,10.5648 L41.39968,20.68768 C41.42336,20.73952 41.41888,20.80032 41.38816,20.84832 C41.36768,20.8811733 41.3366756,20.9052089 41.3014044,20.9175822 L41.24608,20.92704 L39.31008,20.92704 C39.26064,20.92704 39.21444,20.90508 39.18309,20.86872 L39.15712,20.82784 L38.208,18.74016 L34.91712,18.74016 L33.968,20.82784 C33.94784,20.87296 33.90896,20.9062 33.86297,20.92 L33.81504,20.92704 L31.87904,20.92704 C31.82144,20.92704 31.76832,20.8976 31.73632,20.84832 C31.71584,20.81632 31.7073067,20.7786311 31.7110993,20.7417007 L31.72608,20.68768 L36.07616,10.5648 C36.09536,10.52016 36.13328,10.48524 36.17966,10.47057 L36.22848,10.46304 L36.89536,10.46304 Z M57.472896,10.46304 C57.524256,10.46304 57.569856,10.4868 57.600516,10.52379 L57.625856,10.5648 L61.976576,20.68768 C61.999616,20.73952 61.995136,20.80032 61.965056,20.84832 C61.9441493,20.8811733 61.9135716,20.9052089 61.8784427,20.9175822 L61.822976,20.92704 L59.887616,20.92704 C59.837696,20.92704 59.791736,20.90508 59.760536,20.86872 L59.734656,20.82784 L58.784256,18.74016 L55.494016,18.74016 L54.545536,20.82784 C54.524416,20.87296 54.485656,20.9062 54.439516,20.92 L54.391296,20.92704 L52.455936,20.92704 C52.398976,20.92704 52.345216,20.8976 52.313856,20.84832 C52.2938027,20.81632 52.2845582,20.7786311 52.288019,20.7417007 L52.302976,20.68768 L56.653696,10.5648 C56.673376,10.52016 56.710336,10.48524 56.756746,10.47057 L56.806016,10.46304 L57.472896,10.46304 Z M91.137536,10.46304 C91.189376,10.46304 91.235096,10.4868 91.266326,10.52379 L91.292416,10.5648 L95.642496,20.68768 C95.665536,20.73952 95.661056,20.80032 95.629696,20.84832 C95.6096427,20.8811733 95.5787804,20.9052089 95.5437464,20.9175822 L95.488896,20.92704 L93.552896,20.92704 C93.503456,20.92704 93.457256,20.90508 93.425906,20.86872 L93.399936,20.82784 L92.449536,18.74016 L89.159936,18.74016 L88.211456,20.82784 C88.190336,20.87296 88.150856,20.9062 88.104626,20.92 L88.056576,20.92704 L86.121216,20.92704 C86.064256,20.92704 86.010496,20.8976 85.979136,20.84832 C85.9582293,20.81632 85.9498382,20.7786311 85.9535834,20.7417007 L85.968256,20.68768 L90.318976,10.5648 C90.338176,10.52016 90.375736,10.48524 90.421936,10.47057 L90.470656,10.46304 L91.137536,10.46304 Z M36.56768,14.14048 L35.46496,16.85088 L37.6544,16.85088 L36.56768,14.14048 Z M57.143936,14.14048 L56.041856,16.85088 L58.230656,16.85088 L57.143936,14.14048 Z M90.810496,14.14048 L89.707136,16.85088 L91.895936,16.85088 L90.810496,14.14048 Z M25.847552,12.531776 L24.552192,12.531776 C24.5295787,12.531776 24.5095253,12.5434382 24.498669,12.5616427 L24.490112,12.593216 L24.490112,14.683456 C24.490112,14.7060693 24.5026276,14.7264071 24.5210216,14.737453 L24.552192,14.746176 L25.847552,14.746176 C26.4795307,14.746176 26.8818148,14.2583538 26.9326438,13.7484169 L26.938112,13.638976 C26.938112,13.1276587 26.5779598,12.6063061 25.9794159,12.539065 L25.847552,12.531776 Z M102.220992,12.531776 L100.924992,12.531776 C100.902379,12.531776 100.882325,12.5434382 100.871469,12.5616427 L100.862912,12.593216 L100.862912,14.683456 C100.862912,14.7060693 100.875428,14.7264071 100.893822,14.737453 L100.924992,14.746176 L102.220992,14.746176 C102.851179,14.746176 103.255016,14.2583538 103.30606,13.7484169 L103.311552,13.638976 C103.311552,13.1276587 102.949727,12.6063061 102.352521,12.539065 L102.220992,12.531776 Z" id="Text" fill="#FFFFFF"></path>
                </g>
            </g>
        </g>
    </g>
</svg>